<?xml version="1.0" encoding="us-ascii" standalone="no"?><svg xmlns="http://www.w3.org/2000/svg" xmlns:xlink="http://www.w3.org/1999/xlink" contentStyleType="text/css" height="526px" preserveAspectRatio="none" style="width:996px;height:526px;background:#FFFFFF;" version="1.1" viewBox="0 0 996 526" width="996px" zoomAndPan="magnify"><defs/><g><!--class Observer--><g id="elem_Observer"><rect codeLine="2" fill="#F1F1F1" height="64.4883" id="Observer" rx="2.5" ry="2.5" style="stroke:#181818;stroke-width:0.5;" width="94" x="780" y="263.91"/><ellipse cx="795" cy="279.91" fill="#B4A7E5" rx="11" ry="11" style="stroke:#181818;stroke-width:1.0;"/><path d="M791.4277,276.1751 L791.4277,274.0169 L798.8071,274.0169 L798.8071,276.1751 L796.3418,276.1751 L796.3418,284.2518 L798.8071,284.2518 L798.8071,286.41 L791.4277,286.41 L791.4277,284.2518 L793.8931,284.2518 L793.8931,276.1751 Z " fill="#000000"/><text fill="#000000" font-family="sans-serif" font-size="14" font-style="italic" lengthAdjust="spacing" textLength="62" x="809" y="285.201">Observer</text><line style="stroke:#181818;stroke-width:0.5;" x1="781" x2="873" y1="295.91" y2="295.91"/><line style="stroke:#181818;stroke-width:0.5;" x1="781" x2="873" y1="303.91" y2="303.91"/><ellipse cx="791" cy="317.6541" fill="#84BE84" rx="3" ry="3" style="stroke:#038048;stroke-width:1.0;"/><text fill="#000000" font-family="sans-serif" font-size="14" lengthAdjust="spacing" textLength="58" x="800" y="321.4452">update()</text></g><!--class Subject--><g id="elem_Subject"><rect codeLine="6" fill="#F1F1F1" height="97.4648" id="Subject" rx="2.5" ry="2.5" style="stroke:#181818;stroke-width:0.5;" width="250" x="290" y="422.38"/><ellipse cx="385.75" cy="438.38" fill="#B4A7E5" rx="11" ry="11" style="stroke:#181818;stroke-width:1.0;"/><path d="M382.1777,434.6451 L382.1777,432.4869 L389.5571,432.4869 L389.5571,434.6451 L387.0918,434.6451 L387.0918,442.7218 L389.5571,442.7218 L389.5571,444.88 L382.1777,444.88 L382.1777,442.7218 L384.6431,442.7218 L384.6431,434.6451 Z " fill="#000000"/><text fill="#000000" font-family="sans-serif" font-size="14" font-style="italic" lengthAdjust="spacing" textLength="50" x="406.25" y="443.671">Subject</text><line style="stroke:#181818;stroke-width:0.5;" x1="291" x2="539" y1="454.38" y2="454.38"/><line style="stroke:#181818;stroke-width:0.5;" x1="291" x2="539" y1="462.38" y2="462.38"/><ellipse cx="301" cy="476.1241" fill="#84BE84" rx="3" ry="3" style="stroke:#038048;stroke-width:1.0;"/><text fill="#000000" font-family="sans-serif" font-size="14" lengthAdjust="spacing" textLength="206" x="310" y="479.9152">subscribe(observer: Observer)</text><ellipse cx="301" cy="492.6124" fill="#84BE84" rx="3" ry="3" style="stroke:#038048;stroke-width:1.0;"/><text fill="#000000" font-family="sans-serif" font-size="14" lengthAdjust="spacing" textLength="224" x="310" y="496.4034">unsubscribe(observer: Observer)</text><ellipse cx="301" cy="509.1007" fill="#84BE84" rx="3" ry="3" style="stroke:#038048;stroke-width:1.0;"/><text fill="#000000" font-family="sans-serif" font-size="14" lengthAdjust="spacing" textLength="118" x="310" y="512.8917">notifyObservers()</text></g><!--class DBObject--><g id="elem_DBObject"><rect codeLine="13" fill="#F1F1F1" height="130.4414" id="DBObject" rx="2.5" ry="2.5" style="stroke:#181818;stroke-width:0.5;" width="250" x="290" y="230.93"/><ellipse cx="379.75" cy="246.93" fill="#ADD1B2" rx="11" ry="11" style="stroke:#181818;stroke-width:1.0;"/><path d="M382.2231,253.0731 Q381.6421,253.3719 381.0029,253.5213 Q380.3638,253.6707 379.6582,253.6707 Q377.1514,253.6707 375.8315,252.0189 Q374.5117,250.367 374.5117,247.2459 Q374.5117,244.1165 375.8315,242.4647 Q377.1514,240.8128 379.6582,240.8128 Q380.3638,240.8128 381.0112,240.9622 Q381.6587,241.1116 382.2231,241.4105 L382.2231,244.1331 Q381.5923,243.5521 380.9988,243.2823 Q380.4053,243.0125 379.7744,243.0125 Q378.4297,243.0125 377.7449,244.0792 Q377.0601,245.1458 377.0601,247.2459 Q377.0601,249.3377 377.7449,250.4044 Q378.4297,251.471 379.7744,251.471 Q380.4053,251.471 380.9988,251.2012 Q381.5923,250.9315 382.2231,250.3504 Z " fill="#000000"/><text fill="#000000" font-family="sans-serif" font-size="14" lengthAdjust="spacing" textLength="62" x="400.25" y="252.221">DBObject</text><line style="stroke:#181818;stroke-width:0.5;" x1="291" x2="539" y1="262.93" y2="262.93"/><rect fill="none" height="6" style="stroke:#C82930;stroke-width:1.0;" width="6" x="298" y="273.6741"/><text fill="#000000" font-family="sans-serif" font-size="14" lengthAdjust="spacing" textLength="61" x="310" y="280.4652">id: string</text><rect fill="none" height="6" style="stroke:#C82930;stroke-width:1.0;" width="6" x="298" y="290.1624"/><text fill="#000000" font-family="sans-serif" font-size="14" lengthAdjust="spacing" textLength="180" x="310" y="296.9534">observers: Set&lt;Observer&gt;</text><line style="stroke:#181818;stroke-width:1.0;" x1="291" x2="539" y1="303.9066" y2="303.9066"/><ellipse cx="301" cy="317.6507" fill="#84BE84" rx="3" ry="3" style="stroke:#038048;stroke-width:1.0;"/><text fill="#000000" font-family="sans-serif" font-size="14" lengthAdjust="spacing" textLength="206" x="310" y="321.4417">subscribe(observer: Observer)</text><ellipse cx="301" cy="334.139" fill="#84BE84" rx="3" ry="3" style="stroke:#038048;stroke-width:1.0;"/><text fill="#000000" font-family="sans-serif" font-size="14" lengthAdjust="spacing" textLength="224" x="310" y="337.93">unsubscribe(observer: Observer)</text><ellipse cx="301" cy="350.6273" fill="#84BE84" rx="3" ry="3" style="stroke:#038048;stroke-width:1.0;"/><text fill="#000000" font-family="sans-serif" font-size="14" lengthAdjust="spacing" textLength="118" x="310" y="354.4183">notifyObservers()</text></g><!--class DRCViolation--><g id="elem_DRCViolation"><rect codeLine="22" fill="#F1F1F1" height="113.9531" id="DRCViolation" rx="2.5" ry="2.5" style="stroke:#181818;stroke-width:0.5;" width="324" x="665" y="23.49"/><ellipse cx="777.75" cy="39.49" fill="#ADD1B2" rx="11" ry="11" style="stroke:#181818;stroke-width:1.0;"/><path d="M780.2231,45.6331 Q779.6421,45.9319 779.0029,46.0813 Q778.3638,46.2307 777.6582,46.2307 Q775.1514,46.2307 773.8315,44.5789 Q772.5117,42.927 772.5117,39.8059 Q772.5117,36.6765 773.8315,35.0247 Q775.1514,33.3728 777.6582,33.3728 Q778.3638,33.3728 779.0112,33.5222 Q779.6587,33.6716 780.2231,33.9705 L780.2231,36.6931 Q779.5923,36.1121 778.9988,35.8423 Q778.4053,35.5725 777.7744,35.5725 Q776.4297,35.5725 775.7449,36.6392 Q775.0601,37.7058 775.0601,39.8059 Q775.0601,41.8977 775.7449,42.9644 Q776.4297,44.031 777.7744,44.031 Q778.4053,44.031 778.9988,43.7612 Q779.5923,43.4915 780.2231,42.9104 Z " fill="#000000"/><text fill="#000000" font-family="sans-serif" font-size="14" lengthAdjust="spacing" textLength="90" x="798.25" y="44.781">DRCViolation</text><line style="stroke:#181818;stroke-width:0.5;" x1="666" x2="988" y1="55.49" y2="55.49"/><rect fill="none" height="6" style="stroke:#C82930;stroke-width:1.0;" width="6" x="673" y="66.2341"/><text fill="#000000" font-family="sans-serif" font-size="14" lengthAdjust="spacing" textLength="120" x="685" y="73.0252">violationId: string</text><rect fill="none" height="6" style="stroke:#C82930;stroke-width:1.0;" width="6" x="673" y="82.7224"/><text fill="#000000" font-family="sans-serif" font-size="14" lengthAdjust="spacing" textLength="270" x="685" y="89.5134">involvedObjectIds : pair&lt;string, string&gt;</text><line style="stroke:#181818;stroke-width:1.0;" x1="666" x2="988" y1="96.4666" y2="96.4666"/><ellipse cx="676" cy="110.2107" fill="#84BE84" rx="3" ry="3" style="stroke:#038048;stroke-width:1.0;"/><text fill="#000000" font-family="sans-serif" font-size="14" lengthAdjust="spacing" textLength="58" x="685" y="114.0017">update()</text><ellipse cx="676" cy="126.699" fill="#84BE84" rx="3" ry="3" style="stroke:#038048;stroke-width:1.0;"/><text fill="#000000" font-family="sans-serif" font-size="14" lengthAdjust="spacing" textLength="298" x="685" y="130.49">getInvolvedObjectIds(): pair&lt;string, string&gt;</text></g><!--class DRCViolationSystem--><g id="elem_DRCViolationSystem"><rect codeLine="30" fill="#F1F1F1" height="146.9297" id="DRCViolationSystem" rx="2.5" ry="2.5" style="stroke:#181818;stroke-width:0.5;" width="314" x="7" y="7"/><ellipse cx="90.75" cy="23" fill="#ADD1B2" rx="11" ry="11" style="stroke:#181818;stroke-width:1.0;"/><path d="M93.2231,29.1431 Q92.6421,29.4419 92.0029,29.5913 Q91.3638,29.7407 90.6582,29.7407 Q88.1514,29.7407 86.8315,28.0889 Q85.5117,26.437 85.5117,23.3159 Q85.5117,20.1865 86.8315,18.5347 Q88.1514,16.8828 90.6582,16.8828 Q91.3638,16.8828 92.0112,17.0322 Q92.6587,17.1816 93.2231,17.4805 L93.2231,20.2031 Q92.5923,19.6221 91.9988,19.3523 Q91.4053,19.0825 90.7744,19.0825 Q89.4297,19.0825 88.7449,20.1492 Q88.0601,21.2158 88.0601,23.3159 Q88.0601,25.4077 88.7449,26.4744 Q89.4297,27.541 90.7744,27.541 Q91.4053,27.541 91.9988,27.2712 Q92.5923,27.0015 93.2231,26.4204 Z " fill="#000000"/><text fill="#000000" font-family="sans-serif" font-size="14" lengthAdjust="spacing" textLength="138" x="111.25" y="28.291">DRCViolationSystem</text><line style="stroke:#181818;stroke-width:0.5;" x1="8" x2="320" y1="39" y2="39"/><rect fill="none" height="6" style="stroke:#C82930;stroke-width:1.0;" width="6" x="15" y="49.7441"/><text fill="#000000" font-family="sans-serif" font-size="14" lengthAdjust="spacing" textLength="223" x="27" y="56.5352">objectViolations: Set&lt;DBObject&gt;</text><rect fill="none" height="6" style="stroke:#C82930;stroke-width:1.0;" width="6" x="15" y="66.2324"/><text fill="#000000" font-family="sans-serif" font-size="14" lengthAdjust="spacing" text-decoration="underline" textLength="207" x="27" y="73.0234">instance : DRCViolationSystem</text><line style="stroke:#181818;stroke-width:1.0;" x1="8" x2="320" y1="79.9766" y2="79.9766"/><ellipse cx="18" cy="93.7207" fill="#84BE84" rx="3" ry="3" style="stroke:#038048;stroke-width:1.0;"/><text fill="#000000" font-family="sans-serif" font-size="14" lengthAdjust="spacing" textLength="254" x="27" y="97.5117">addViolation(violation: DRCViolation)</text><ellipse cx="18" cy="110.209" fill="#84BE84" rx="3" ry="3" style="stroke:#038048;stroke-width:1.0;"/><text fill="#000000" font-family="sans-serif" font-size="14" lengthAdjust="spacing" textLength="288" x="27" y="114">removeViolationsForObject(obj: DBObject)</text><ellipse cx="18" cy="126.6973" fill="#84BE84" rx="3" ry="3" style="stroke:#038048;stroke-width:1.0;"/><text fill="#000000" font-family="sans-serif" font-size="14" lengthAdjust="spacing" textLength="211" x="27" y="130.4883">updateViolation(obj: DBObject)</text><ellipse cx="18" cy="143.1855" fill="#84BE84" rx="3" ry="3" style="stroke:#038048;stroke-width:1.0;"/><text fill="#000000" font-family="sans-serif" font-size="14" lengthAdjust="spacing" textLength="239" x="27" y="146.9766">getInstance() : DRCViolationSystem</text></g><g id="elem_GMN11"><path d="M355.5,52.5 L355.5,76.47 L321.43,80.47 L355.5,84.47 L355.5,108.4316 A0,0 0 0 0 355.5,108.4316 L630.5,108.4316 A0,0 0 0 0 630.5,108.4316 L630.5,62.5 L620.5,52.5 L355.5,52.5 A0,0 0 0 0 355.5,52.5 " fill="#FEFFDD" style="stroke:#181818;stroke-width:0.5;"/><path d="M620.5,52.5 L620.5,62.5 L630.5,62.5 L620.5,52.5 " fill="#FEFFDD" style="stroke:#181818;stroke-width:0.5;"/><text fill="#000000" font-family="sans-serif" font-size="13" lengthAdjust="spacing" textLength="112" x="361.5" y="70.0684">Singleton pattern:</text><text fill="#000000" font-family="sans-serif" font-size="13" lengthAdjust="spacing" textLength="254" x="361.5" y="85.3789">- getInstance() returns the only instance</text><text fill="#000000" font-family="sans-serif" font-size="13" lengthAdjust="spacing" textLength="198" x="361.5" y="100.6895">- instance is static (underlined)</text></g><!--link DBObject to Subject--><g id="link_DBObject_Subject"><path codeLine="40" d="M415,361.56 C415,381.63 415,385.4 415,404.14 " fill="none" id="DBObject-to-Subject" style="stroke:#181818;stroke-width:1.0;stroke-dasharray:7.0,7.0;"/><polygon fill="none" points="415,422.14,421,404.14,409,404.14,415,422.14" style="stroke:#181818;stroke-width:1.0;"/></g><!--link DRCViolation to Observer--><g id="link_DRCViolation_Observer"><path codeLine="41" d="M827,137.89 C827,178.08 827,212.61 827,245.63 " fill="none" id="DRCViolation-to-Observer" style="stroke:#181818;stroke-width:1.0;stroke-dasharray:7.0,7.0;"/><polygon fill="none" points="827,263.63,833,245.63,821,245.63,827,263.63" style="stroke:#181818;stroke-width:1.0;"/></g><!--link DRCViolation to DBObject--><g id="link_DRCViolation_DBObject"><path codeLine="42" d="M718.21,137.89 C663.38,166.33 607.2718,195.4238 550.3718,224.9438 " fill="none" id="DRCViolation-to-DBObject" style="stroke:#181818;stroke-width:1.0;"/><polygon fill="none" points="539.72,230.47,546.888,231.2575,550.3718,224.9438,543.2038,224.1563,539.72,230.47" style="stroke:#181818;stroke-width:1.0;"/><text fill="#000000" font-family="sans-serif" font-size="13" lengthAdjust="spacing" textLength="56" x="622" y="197.4984">observes</text><text fill="#000000" font-family="sans-serif" font-size="13" lengthAdjust="spacing" textLength="22" x="682.3593" y="157.9831">1..*</text><text fill="#000000" font-family="sans-serif" font-size="13" lengthAdjust="spacing" textLength="24" x="528.0488" y="220.0512">1..2</text></g><!--reverse link DRCViolationSystem to DBObject--><g id="link_DRCViolationSystem_DBObject"><path codeLine="45" d="M258.8161,162.1903 C287.9261,186.9803 311.09,206.7 339.37,230.76 " fill="none" id="DRCViolationSystem-backto-DBObject" style="stroke:#181818;stroke-width:1.0;"/><polygon fill="#181818" points="249.68,154.41,251.6546,161.3455,258.8161,162.1903,256.8414,155.2548,249.68,154.41" style="stroke:#181818;stroke-width:1.0;"/></g><!--SRC=[lLCzQyCm5DprAnvPOhTrIZkQuA4fXKo11hhBrakYO4j1aWqXxN-l8ajoN5peL2_Mn-bqxzrf3cjXKEreXPhmC8HDgL5rgE12m7xtxObHWqbAliWDQjkMHwnC0Ecsr9NY9IRI7yyZKUfvn1z0GXg-EuT5tTywXvLK24msb0keQggrLUp-yFgokHMISPQ3DegB_NNQhuNRT0vRDCl0NaH0zWz5UBdlgmykQsgu570P97PXSHtr-tf49-iEML_bccd8uKIvMlQW1mykHeL4ozniZsRzaoL9Vw6PLBezQuDDQB5q977JTpKOuPKisu8BRQYmMSado9QFxLWpPIn2ajYEyL5VaC96TZW8U9EglzjQSinZ9DBRPWpSKnZNebvjaaxgTLRPviIyBHQVHNW5P6IhsmdkZxTcJul5tSpMBDtmUJRaDmUV9zq7lZb9pTqXAXXihJar6Yd8XBIxB8iyn8OFGV7zmO3SJHHY2uvaDWB6FcYHsyKCnarGQ5ebD9W3WXJr6OAT3XkzvTf6nz9NaBI2eQgvG9OIj9glIhu1]--></g></svg>