<?xml version="1.0" encoding="us-ascii" standalone="no"?><svg xmlns="http://www.w3.org/2000/svg" xmlns:xlink="http://www.w3.org/1999/xlink" contentStyleType="text/css" height="526px" preserveAspectRatio="none" style="width:953px;height:526px;background:#FFFFFF;" version="1.1" viewBox="0 0 953 526" width="953px" zoomAndPan="magnify"><defs/><g><!--class Observer--><g id="elem_Observer"><rect codeLine="2" fill="#F1F1F1" height="64.4883" id="Observer" rx="2.5" ry="2.5" style="stroke:#181818;stroke-width:0.5;" width="94" x="759" y="263.91"/><ellipse cx="774" cy="279.91" fill="#B4A7E5" rx="11" ry="11" style="stroke:#181818;stroke-width:1.0;"/><path d="M770.4277,276.1751 L770.4277,274.0169 L777.8071,274.0169 L777.8071,276.1751 L775.3418,276.1751 L775.3418,284.2518 L777.8071,284.2518 L777.8071,286.41 L770.4277,286.41 L770.4277,284.2518 L772.8931,284.2518 L772.8931,276.1751 Z " fill="#000000"/><text fill="#000000" font-family="sans-serif" font-size="14" font-style="italic" lengthAdjust="spacing" textLength="62" x="788" y="285.201">Observer</text><line style="stroke:#181818;stroke-width:0.5;" x1="760" x2="852" y1="295.91" y2="295.91"/><line style="stroke:#181818;stroke-width:0.5;" x1="760" x2="852" y1="303.91" y2="303.91"/><ellipse cx="770" cy="317.6541" fill="#84BE84" rx="3" ry="3" style="stroke:#038048;stroke-width:1.0;"/><text fill="#000000" font-family="sans-serif" font-size="14" lengthAdjust="spacing" textLength="58" x="779" y="321.4452">update()</text></g><!--class Subject--><g id="elem_Subject"><rect codeLine="6" fill="#F1F1F1" height="97.4648" id="Subject" rx="2.5" ry="2.5" style="stroke:#181818;stroke-width:0.5;" width="250" x="365" y="422.38"/><ellipse cx="460.75" cy="438.38" fill="#B4A7E5" rx="11" ry="11" style="stroke:#181818;stroke-width:1.0;"/><path d="M457.1777,434.6451 L457.1777,432.4869 L464.5571,432.4869 L464.5571,434.6451 L462.0918,434.6451 L462.0918,442.7218 L464.5571,442.7218 L464.5571,444.88 L457.1777,444.88 L457.1777,442.7218 L459.6431,442.7218 L459.6431,434.6451 Z " fill="#000000"/><text fill="#000000" font-family="sans-serif" font-size="14" font-style="italic" lengthAdjust="spacing" textLength="50" x="481.25" y="443.671">Subject</text><line style="stroke:#181818;stroke-width:0.5;" x1="366" x2="614" y1="454.38" y2="454.38"/><line style="stroke:#181818;stroke-width:0.5;" x1="366" x2="614" y1="462.38" y2="462.38"/><ellipse cx="376" cy="476.1241" fill="#84BE84" rx="3" ry="3" style="stroke:#038048;stroke-width:1.0;"/><text fill="#000000" font-family="sans-serif" font-size="14" lengthAdjust="spacing" textLength="206" x="385" y="479.9152">subscribe(observer: Observer)</text><ellipse cx="376" cy="492.6124" fill="#84BE84" rx="3" ry="3" style="stroke:#038048;stroke-width:1.0;"/><text fill="#000000" font-family="sans-serif" font-size="14" lengthAdjust="spacing" textLength="224" x="385" y="496.4034">unsubscribe(observer: Observer)</text><ellipse cx="376" cy="509.1007" fill="#84BE84" rx="3" ry="3" style="stroke:#038048;stroke-width:1.0;"/><text fill="#000000" font-family="sans-serif" font-size="14" lengthAdjust="spacing" textLength="118" x="385" y="512.8917">notifyObservers()</text></g><!--class DBObject--><g id="elem_DBObject"><rect codeLine="13" fill="#F1F1F1" height="130.4414" id="DBObject" rx="2.5" ry="2.5" style="stroke:#181818;stroke-width:0.5;" width="250" x="365" y="230.93"/><ellipse cx="454.75" cy="246.93" fill="#ADD1B2" rx="11" ry="11" style="stroke:#181818;stroke-width:1.0;"/><path d="M457.2231,253.0731 Q456.6421,253.3719 456.0029,253.5213 Q455.3638,253.6707 454.6582,253.6707 Q452.1514,253.6707 450.8315,252.0189 Q449.5117,250.367 449.5117,247.2459 Q449.5117,244.1165 450.8315,242.4647 Q452.1514,240.8128 454.6582,240.8128 Q455.3638,240.8128 456.0112,240.9622 Q456.6587,241.1116 457.2231,241.4105 L457.2231,244.1331 Q456.5923,243.5521 455.9988,243.2823 Q455.4053,243.0125 454.7744,243.0125 Q453.4297,243.0125 452.7449,244.0792 Q452.0601,245.1458 452.0601,247.2459 Q452.0601,249.3377 452.7449,250.4044 Q453.4297,251.471 454.7744,251.471 Q455.4053,251.471 455.9988,251.2012 Q456.5923,250.9315 457.2231,250.3504 Z " fill="#000000"/><text fill="#000000" font-family="sans-serif" font-size="14" lengthAdjust="spacing" textLength="62" x="475.25" y="252.221">DBObject</text><line style="stroke:#181818;stroke-width:0.5;" x1="366" x2="614" y1="262.93" y2="262.93"/><rect fill="none" height="6" style="stroke:#C82930;stroke-width:1.0;" width="6" x="373" y="273.6741"/><text fill="#000000" font-family="sans-serif" font-size="14" lengthAdjust="spacing" textLength="61" x="385" y="280.4652">id: string</text><rect fill="none" height="6" style="stroke:#C82930;stroke-width:1.0;" width="6" x="373" y="290.1624"/><text fill="#000000" font-family="sans-serif" font-size="14" lengthAdjust="spacing" textLength="180" x="385" y="296.9534">observers: Set&lt;Observer&gt;</text><line style="stroke:#181818;stroke-width:1.0;" x1="366" x2="614" y1="303.9066" y2="303.9066"/><ellipse cx="376" cy="317.6507" fill="#84BE84" rx="3" ry="3" style="stroke:#038048;stroke-width:1.0;"/><text fill="#000000" font-family="sans-serif" font-size="14" lengthAdjust="spacing" textLength="206" x="385" y="321.4417">subscribe(observer: Observer)</text><ellipse cx="376" cy="334.139" fill="#84BE84" rx="3" ry="3" style="stroke:#038048;stroke-width:1.0;"/><text fill="#000000" font-family="sans-serif" font-size="14" lengthAdjust="spacing" textLength="224" x="385" y="337.93">unsubscribe(observer: Observer)</text><ellipse cx="376" cy="350.6273" fill="#84BE84" rx="3" ry="3" style="stroke:#038048;stroke-width:1.0;"/><text fill="#000000" font-family="sans-serif" font-size="14" lengthAdjust="spacing" textLength="118" x="385" y="354.4183">notifyObservers()</text></g><!--class DRCViolation--><g id="elem_DRCViolation"><rect codeLine="22" fill="#F1F1F1" height="97.4648" id="DRCViolation" rx="2.5" ry="2.5" style="stroke:#181818;stroke-width:0.5;" width="281" x="665.5" y="31.74"/><ellipse cx="756.75" cy="47.74" fill="#ADD1B2" rx="11" ry="11" style="stroke:#181818;stroke-width:1.0;"/><path d="M759.2231,53.8831 Q758.6421,54.1819 758.0029,54.3313 Q757.3638,54.4807 756.6582,54.4807 Q754.1514,54.4807 752.8315,52.8289 Q751.5117,51.177 751.5117,48.0559 Q751.5117,44.9265 752.8315,43.2747 Q754.1514,41.6228 756.6582,41.6228 Q757.3638,41.6228 758.0112,41.7722 Q758.6587,41.9216 759.2231,42.2205 L759.2231,44.9431 Q758.5923,44.3621 757.9988,44.0923 Q757.4053,43.8225 756.7744,43.8225 Q755.4297,43.8225 754.7449,44.8892 Q754.0601,45.9558 754.0601,48.0559 Q754.0601,50.1477 754.7449,51.2144 Q755.4297,52.281 756.7744,52.281 Q757.4053,52.281 757.9988,52.0112 Q758.5923,51.7415 759.2231,51.1604 Z " fill="#000000"/><text fill="#000000" font-family="sans-serif" font-size="14" lengthAdjust="spacing" textLength="90" x="777.25" y="53.031">DRCViolation</text><line style="stroke:#181818;stroke-width:0.5;" x1="666.5" x2="945.5" y1="63.74" y2="63.74"/><rect fill="none" height="6" style="stroke:#C82930;stroke-width:1.0;" width="6" x="673.5" y="74.4841"/><text fill="#000000" font-family="sans-serif" font-size="14" lengthAdjust="spacing" textLength="120" x="685.5" y="81.2752">violationId: string</text><line style="stroke:#181818;stroke-width:1.0;" x1="666.5" x2="945.5" y1="88.2283" y2="88.2283"/><ellipse cx="676.5" cy="101.9724" fill="#84BE84" rx="3" ry="3" style="stroke:#038048;stroke-width:1.0;"/><text fill="#000000" font-family="sans-serif" font-size="14" lengthAdjust="spacing" textLength="58" x="685.5" y="105.7634">update()</text><ellipse cx="676.5" cy="118.4607" fill="#84BE84" rx="3" ry="3" style="stroke:#038048;stroke-width:1.0;"/><text fill="#000000" font-family="sans-serif" font-size="14" lengthAdjust="spacing" textLength="255" x="685.5" y="122.2517">getInvolvedObjects(): List&lt;DBObject&gt;</text></g><!--class DRCViolationSystem--><g id="elem_DRCViolationSystem"><rect codeLine="29" fill="#F1F1F1" height="146.9297" id="DRCViolationSystem" rx="2.5" ry="2.5" style="stroke:#181818;stroke-width:0.5;" width="314" x="7" y="7"/><ellipse cx="90.75" cy="23" fill="#ADD1B2" rx="11" ry="11" style="stroke:#181818;stroke-width:1.0;"/><path d="M93.2231,29.1431 Q92.6421,29.4419 92.0029,29.5913 Q91.3638,29.7407 90.6582,29.7407 Q88.1514,29.7407 86.8315,28.0889 Q85.5117,26.437 85.5117,23.3159 Q85.5117,20.1865 86.8315,18.5347 Q88.1514,16.8828 90.6582,16.8828 Q91.3638,16.8828 92.0112,17.0322 Q92.6587,17.1816 93.2231,17.4805 L93.2231,20.2031 Q92.5923,19.6221 91.9988,19.3523 Q91.4053,19.0825 90.7744,19.0825 Q89.4297,19.0825 88.7449,20.1492 Q88.0601,21.2158 88.0601,23.3159 Q88.0601,25.4077 88.7449,26.4744 Q89.4297,27.541 90.7744,27.541 Q91.4053,27.541 91.9988,27.2712 Q92.5923,27.0015 93.2231,26.4204 Z " fill="#000000"/><text fill="#000000" font-family="sans-serif" font-size="14" lengthAdjust="spacing" textLength="138" x="111.25" y="28.291">DRCViolationSystem</text><line style="stroke:#181818;stroke-width:0.5;" x1="8" x2="320" y1="39" y2="39"/><rect fill="none" height="6" style="stroke:#C82930;stroke-width:1.0;" width="6" x="15" y="49.7441"/><text fill="#000000" font-family="sans-serif" font-size="14" lengthAdjust="spacing" textLength="223" x="27" y="56.5352">objectViolations: Set&lt;DBObject&gt;</text><rect fill="none" height="6" style="stroke:#C82930;stroke-width:1.0;" width="6" x="15" y="66.2324"/><text fill="#000000" font-family="sans-serif" font-size="14" lengthAdjust="spacing" text-decoration="underline" textLength="207" x="27" y="73.0234">instance : DRCViolationSystem</text><line style="stroke:#181818;stroke-width:1.0;" x1="8" x2="320" y1="79.9766" y2="79.9766"/><ellipse cx="18" cy="93.7207" fill="#84BE84" rx="3" ry="3" style="stroke:#038048;stroke-width:1.0;"/><text fill="#000000" font-family="sans-serif" font-size="14" lengthAdjust="spacing" textLength="254" x="27" y="97.5117">addViolation(violation: DRCViolation)</text><ellipse cx="18" cy="110.209" fill="#84BE84" rx="3" ry="3" style="stroke:#038048;stroke-width:1.0;"/><text fill="#000000" font-family="sans-serif" font-size="14" lengthAdjust="spacing" textLength="288" x="27" y="114">removeViolationsForObject(obj: DBObject)</text><ellipse cx="18" cy="126.6973" fill="#84BE84" rx="3" ry="3" style="stroke:#038048;stroke-width:1.0;"/><text fill="#000000" font-family="sans-serif" font-size="14" lengthAdjust="spacing" textLength="211" x="27" y="130.4883">updateViolation(obj: DBObject)</text><ellipse cx="18" cy="143.1855" fill="#84BE84" rx="3" ry="3" style="stroke:#038048;stroke-width:1.0;"/><text fill="#000000" font-family="sans-serif" font-size="14" lengthAdjust="spacing" textLength="239" x="27" y="146.9766">getInstance() : DRCViolationSystem</text></g><g id="elem_GMN11"><path d="M355.5,52.5 L355.5,76.47 L321.43,80.47 L355.5,84.47 L355.5,108.4316 A0,0 0 0 0 355.5,108.4316 L630.5,108.4316 A0,0 0 0 0 630.5,108.4316 L630.5,62.5 L620.5,52.5 L355.5,52.5 A0,0 0 0 0 355.5,52.5 " fill="#FEFFDD" style="stroke:#181818;stroke-width:0.5;"/><path d="M620.5,52.5 L620.5,62.5 L630.5,62.5 L620.5,52.5 " fill="#FEFFDD" style="stroke:#181818;stroke-width:0.5;"/><text fill="#000000" font-family="sans-serif" font-size="13" lengthAdjust="spacing" textLength="112" x="361.5" y="70.0684">Singleton pattern:</text><text fill="#000000" font-family="sans-serif" font-size="13" lengthAdjust="spacing" textLength="254" x="361.5" y="85.3789">- getInstance() returns the only instance</text><text fill="#000000" font-family="sans-serif" font-size="13" lengthAdjust="spacing" textLength="198" x="361.5" y="100.6895">- instance is static (underlined)</text></g><!--link DBObject to Subject--><g id="link_DBObject_Subject"><path codeLine="39" d="M490,361.56 C490,381.63 490,385.4 490,404.14 " fill="none" id="DBObject-to-Subject" style="stroke:#181818;stroke-width:1.0;stroke-dasharray:7.0,7.0;"/><polygon fill="none" points="490,422.14,496,404.14,484,404.14,490,422.14" style="stroke:#181818;stroke-width:1.0;"/></g><!--link DRCViolation to Observer--><g id="link_DRCViolation_Observer"><path codeLine="40" d="M806,129.69 C806,170.68 806,210.34 806,245.65 " fill="none" id="DRCViolation-to-Observer" style="stroke:#181818;stroke-width:1.0;stroke-dasharray:7.0,7.0;"/><polygon fill="none" points="806,263.65,812,245.65,800,245.65,806,263.65" style="stroke:#181818;stroke-width:1.0;"/></g><!--link DRCViolation to DBObject--><g id="link_DRCViolation_DBObject"><path codeLine="41" d="M734.69,129.69 C690.64,159.48 643.5004,191.3477 595.5604,223.7677 " fill="none" id="DRCViolation-to-DBObject" style="stroke:#181818;stroke-width:1.0;"/><polygon fill="none" points="585.62,230.49,592.8309,230.4423,595.5604,223.7677,588.3494,223.8154,585.62,230.49" style="stroke:#181818;stroke-width:1.0;"/><text fill="#000000" font-family="sans-serif" font-size="13" lengthAdjust="spacing" textLength="56" x="649" y="197.4984">observes</text><text fill="#000000" font-family="sans-serif" font-size="13" lengthAdjust="spacing" textLength="22" x="701.6296" y="149.9006">1..*</text><text fill="#000000" font-family="sans-serif" font-size="13" lengthAdjust="spacing" textLength="24" x="570.7659" y="220.0734">1..2</text></g><!--reverse link DRCViolationSystem to DBObject--><g id="link_DRCViolationSystem_DBObject"><path codeLine="44" d="M285.3167,160.9876 C323.0367,185.7076 354.84,206.56 391.5,230.59 " fill="none" id="DRCViolationSystem-backto-DBObject" style="stroke:#181818;stroke-width:1.0;"/><polygon fill="#181818" points="275.28,154.41,278.1058,161.0444,285.3167,160.9876,282.4909,154.3532,275.28,154.41" style="stroke:#181818;stroke-width:1.0;"/></g><!--SRC=[lLD1QuCm6BtxApvwgMxes8v1FAnZK1WK9kmUpTSsHPEIHA5q- -zBeuaLFEmqBvhavNtlU-zp3LjXKErfZJhY_XDsbKRLeu9h1FPvxCwC6eoJw2UwGvLTTSBQU93kAbqhNc4in-ia42KZZ_W3I4Z3znU_gOUgQzX8XS1aIxc0kg5QMyNk3M-lktiXAMS4j55S76xBOSzNqmHADBbdBm8W_OScHhcVcoyk6sgu572T9FP-SnlqpwI54DpgW6OhUjdqo8RkRGq27roRtFjHBDSiBzfWwysI3XeEHtyc2WVAku8BRQYmgPC5ilofAsPQAMC14eV6vbV7HXIsiiT9mBjKGsrhxec4S9Dx4oRk9OopPb0R9ujwdUdMd30vMVPT-7cEPW6v4v_Z_6Zrd6KFAzkpT9ylgsaI2OoJeOVHRSzIStU92WQbZRP18qMq8EqXJGDFPCS8GV73qO3SBpHY6mvaSAR6_fg2sCqKvYOeD9qI6imHGOhc0ZvEXmtPScq7pzBN47U2eMguG9P4Q3NVbFm2]--></g></svg>