<?xml version="1.0" encoding="us-ascii" standalone="no"?><svg xmlns="http://www.w3.org/2000/svg" xmlns:xlink="http://www.w3.org/1999/xlink" contentStyleType="text/css" height="685px" preserveAspectRatio="none" style="width:739px;height:685px;background:#FFFFFF;" version="1.1" viewBox="0 0 739 685" width="739px" zoomAndPan="magnify"><defs/><g><!--class Observer--><g id="elem_Observer"><rect codeLine="2" fill="#F1F1F1" height="64.4883" id="Observer" rx="2.5" ry="2.5" style="stroke:#181818;stroke-width:0.5;" width="94" x="102" y="422.37"/><ellipse cx="117" cy="438.37" fill="#B4A7E5" rx="11" ry="11" style="stroke:#181818;stroke-width:1.0;"/><path d="M113.4277,434.6351 L113.4277,432.4769 L120.8071,432.4769 L120.8071,434.6351 L118.3418,434.6351 L118.3418,442.7118 L120.8071,442.7118 L120.8071,444.87 L113.4277,444.87 L113.4277,442.7118 L115.8931,442.7118 L115.8931,434.6351 Z " fill="#000000"/><text fill="#000000" font-family="sans-serif" font-size="14" font-style="italic" lengthAdjust="spacing" textLength="62" x="131" y="443.661">Observer</text><line style="stroke:#181818;stroke-width:0.5;" x1="103" x2="195" y1="454.37" y2="454.37"/><line style="stroke:#181818;stroke-width:0.5;" x1="103" x2="195" y1="462.37" y2="462.37"/><ellipse cx="113" cy="476.1141" fill="#84BE84" rx="3" ry="3" style="stroke:#038048;stroke-width:1.0;"/><text fill="#000000" font-family="sans-serif" font-size="14" lengthAdjust="spacing" textLength="58" x="122" y="479.9052">update()</text></g><!--class Subject--><g id="elem_Subject"><rect codeLine="6" fill="#F1F1F1" height="97.4648" id="Subject" rx="2.5" ry="2.5" style="stroke:#181818;stroke-width:0.5;" width="250" x="231" y="580.84"/><ellipse cx="326.75" cy="596.84" fill="#B4A7E5" rx="11" ry="11" style="stroke:#181818;stroke-width:1.0;"/><path d="M323.1777,593.1051 L323.1777,590.9469 L330.5571,590.9469 L330.5571,593.1051 L328.0918,593.1051 L328.0918,601.1818 L330.5571,601.1818 L330.5571,603.34 L323.1777,603.34 L323.1777,601.1818 L325.6431,601.1818 L325.6431,593.1051 Z " fill="#000000"/><text fill="#000000" font-family="sans-serif" font-size="14" font-style="italic" lengthAdjust="spacing" textLength="50" x="347.25" y="602.131">Subject</text><line style="stroke:#181818;stroke-width:0.5;" x1="232" x2="480" y1="612.84" y2="612.84"/><line style="stroke:#181818;stroke-width:0.5;" x1="232" x2="480" y1="620.84" y2="620.84"/><ellipse cx="242" cy="634.5841" fill="#84BE84" rx="3" ry="3" style="stroke:#038048;stroke-width:1.0;"/><text fill="#000000" font-family="sans-serif" font-size="14" lengthAdjust="spacing" textLength="206" x="251" y="638.3752">subscribe(observer: Observer)</text><ellipse cx="242" cy="651.0724" fill="#84BE84" rx="3" ry="3" style="stroke:#038048;stroke-width:1.0;"/><text fill="#000000" font-family="sans-serif" font-size="14" lengthAdjust="spacing" textLength="224" x="251" y="654.8634">unsubscribe(observer: Observer)</text><ellipse cx="242" cy="667.5607" fill="#84BE84" rx="3" ry="3" style="stroke:#038048;stroke-width:1.0;"/><text fill="#000000" font-family="sans-serif" font-size="14" lengthAdjust="spacing" textLength="118" x="251" y="671.3517">notifyObservers()</text></g><!--class DBObject--><g id="elem_DBObject"><rect codeLine="13" fill="#F1F1F1" height="130.4414" id="DBObject" rx="2.5" ry="2.5" style="stroke:#181818;stroke-width:0.5;" width="250" x="231" y="389.39"/><ellipse cx="320.75" cy="405.39" fill="#ADD1B2" rx="11" ry="11" style="stroke:#181818;stroke-width:1.0;"/><path d="M323.2231,411.5331 Q322.6421,411.8319 322.0029,411.9813 Q321.3638,412.1307 320.6582,412.1307 Q318.1514,412.1307 316.8315,410.4789 Q315.5117,408.827 315.5117,405.7059 Q315.5117,402.5765 316.8315,400.9247 Q318.1514,399.2728 320.6582,399.2728 Q321.3638,399.2728 322.0112,399.4222 Q322.6587,399.5716 323.2231,399.8705 L323.2231,402.5931 Q322.5923,402.0121 321.9988,401.7423 Q321.4053,401.4725 320.7744,401.4725 Q319.4297,401.4725 318.7449,402.5392 Q318.0601,403.6058 318.0601,405.7059 Q318.0601,407.7977 318.7449,408.8644 Q319.4297,409.931 320.7744,409.931 Q321.4053,409.931 321.9988,409.6612 Q322.5923,409.3915 323.2231,408.8104 Z " fill="#000000"/><text fill="#000000" font-family="sans-serif" font-size="14" lengthAdjust="spacing" textLength="62" x="341.25" y="410.681">DBObject</text><line style="stroke:#181818;stroke-width:0.5;" x1="232" x2="480" y1="421.39" y2="421.39"/><ellipse cx="242" cy="435.1341" fill="none" rx="3" ry="3" style="stroke:#038048;stroke-width:1.0;"/><text fill="#000000" font-family="sans-serif" font-size="14" lengthAdjust="spacing" textLength="61" x="251" y="438.9252">id: string</text><ellipse cx="242" cy="451.6224" fill="none" rx="3" ry="3" style="stroke:#038048;stroke-width:1.0;"/><text fill="#000000" font-family="sans-serif" font-size="14" lengthAdjust="spacing" textLength="139" x="251" y="455.4134">geometry: Geometry</text><line style="stroke:#181818;stroke-width:1.0;" x1="232" x2="480" y1="462.3666" y2="462.3666"/><ellipse cx="242" cy="476.1107" fill="#84BE84" rx="3" ry="3" style="stroke:#038048;stroke-width:1.0;"/><text fill="#000000" font-family="sans-serif" font-size="14" lengthAdjust="spacing" textLength="206" x="251" y="479.9017">subscribe(observer: Observer)</text><ellipse cx="242" cy="492.599" fill="#84BE84" rx="3" ry="3" style="stroke:#038048;stroke-width:1.0;"/><text fill="#000000" font-family="sans-serif" font-size="14" lengthAdjust="spacing" textLength="224" x="251" y="496.39">unsubscribe(observer: Observer)</text><ellipse cx="242" cy="509.0873" fill="#84BE84" rx="3" ry="3" style="stroke:#038048;stroke-width:1.0;"/><text fill="#000000" font-family="sans-serif" font-size="14" lengthAdjust="spacing" textLength="118" x="251" y="512.8783">notifyObservers()</text></g><!--class DRCViolation--><g id="elem_DRCViolation"><rect codeLine="22" fill="#F1F1F1" height="97.4648" id="DRCViolation" rx="2.5" ry="2.5" style="stroke:#181818;stroke-width:0.5;" width="281" x="74.5" y="214.93"/><ellipse cx="165.75" cy="230.93" fill="#ADD1B2" rx="11" ry="11" style="stroke:#181818;stroke-width:1.0;"/><path d="M168.2231,237.0731 Q167.6421,237.3719 167.0029,237.5213 Q166.3638,237.6707 165.6582,237.6707 Q163.1514,237.6707 161.8315,236.0189 Q160.5117,234.367 160.5117,231.2459 Q160.5117,228.1165 161.8315,226.4647 Q163.1514,224.8128 165.6582,224.8128 Q166.3638,224.8128 167.0112,224.9622 Q167.6587,225.1116 168.2231,225.4105 L168.2231,228.1331 Q167.5923,227.5521 166.9988,227.2823 Q166.4053,227.0125 165.7744,227.0125 Q164.4297,227.0125 163.7449,228.0792 Q163.0601,229.1458 163.0601,231.2459 Q163.0601,233.3377 163.7449,234.4044 Q164.4297,235.471 165.7744,235.471 Q166.4053,235.471 166.9988,235.2012 Q167.5923,234.9315 168.2231,234.3504 Z " fill="#000000"/><text fill="#000000" font-family="sans-serif" font-size="14" lengthAdjust="spacing" textLength="90" x="186.25" y="236.221">DRCViolation</text><line style="stroke:#181818;stroke-width:0.5;" x1="75.5" x2="354.5" y1="246.93" y2="246.93"/><ellipse cx="85.5" cy="260.6741" fill="none" rx="3" ry="3" style="stroke:#038048;stroke-width:1.0;"/><text fill="#000000" font-family="sans-serif" font-size="14" lengthAdjust="spacing" textLength="120" x="94.5" y="264.4652">violationId: string</text><line style="stroke:#181818;stroke-width:0.5;" x1="75.5" x2="354.5" y1="271.4183" y2="271.4183"/><ellipse cx="85.5" cy="285.1624" fill="#84BE84" rx="3" ry="3" style="stroke:#038048;stroke-width:1.0;"/><text fill="#000000" font-family="sans-serif" font-size="14" lengthAdjust="spacing" textLength="58" x="94.5" y="288.9534">update()</text><ellipse cx="85.5" cy="301.6507" fill="#84BE84" rx="3" ry="3" style="stroke:#038048;stroke-width:1.0;"/><text fill="#000000" font-family="sans-serif" font-size="14" lengthAdjust="spacing" textLength="255" x="94.5" y="305.4417">getInvolvedObjects(): List&lt;DBObject&gt;</text></g><!--class DRCViolationSystem--><g id="elem_DRCViolationSystem"><rect codeLine="28" fill="#F1F1F1" height="146.9297" id="DRCViolationSystem" rx="2.5" ry="2.5" style="stroke:#181818;stroke-width:0.5;" width="416" x="7" y="7"/><ellipse cx="141.75" cy="23" fill="#ADD1B2" rx="11" ry="11" style="stroke:#181818;stroke-width:1.0;"/><path d="M144.2231,29.1431 Q143.6421,29.4419 143.0029,29.5913 Q142.3638,29.7407 141.6582,29.7407 Q139.1514,29.7407 137.8315,28.0889 Q136.5117,26.437 136.5117,23.3159 Q136.5117,20.1865 137.8315,18.5347 Q139.1514,16.8828 141.6582,16.8828 Q142.3638,16.8828 143.0112,17.0322 Q143.6587,17.1816 144.2231,17.4805 L144.2231,20.2031 Q143.5923,19.6221 142.9988,19.3523 Q142.4053,19.0825 141.7744,19.0825 Q140.4297,19.0825 139.7449,20.1492 Q139.0601,21.2158 139.0601,23.3159 Q139.0601,25.4077 139.7449,26.4744 Q140.4297,27.541 141.7744,27.541 Q142.4053,27.541 142.9988,27.2712 Q143.5923,27.0015 144.2231,26.4204 Z " fill="#000000"/><text fill="#000000" font-family="sans-serif" font-size="14" lengthAdjust="spacing" textLength="138" x="162.25" y="28.291">DRCViolationSystem</text><line style="stroke:#181818;stroke-width:0.5;" x1="8" x2="422" y1="39" y2="39"/><ellipse cx="18" cy="52.7441" fill="#84BE84" rx="3" ry="3" style="stroke:#038048;stroke-width:1.0;"/><text fill="#000000" font-family="sans-serif" font-size="14" lengthAdjust="spacing" textLength="254" x="27" y="56.5352">addViolation(violation: DRCViolation)</text><ellipse cx="18" cy="69.2324" fill="#84BE84" rx="3" ry="3" style="stroke:#038048;stroke-width:1.0;"/><text fill="#000000" font-family="sans-serif" font-size="14" lengthAdjust="spacing" textLength="288" x="27" y="73.0234">removeViolationsForObject(obj: DBObject)</text><ellipse cx="18" cy="85.7207" fill="#84BE84" rx="3" ry="3" style="stroke:#038048;stroke-width:1.0;"/><text fill="#000000" font-family="sans-serif" font-size="14" lengthAdjust="spacing" textLength="211" x="27" y="89.5117">updateViolation(obj: DBObject)</text><ellipse cx="18" cy="102.209" fill="#84BE84" rx="3" ry="3" style="stroke:#038048;stroke-width:1.0;"/><text fill="#000000" font-family="sans-serif" font-size="14" lengthAdjust="spacing" textLength="239" x="27" y="106">getInstance() : DRCViolationSystem</text><line style="stroke:#181818;stroke-width:1.0;" x1="8" x2="422" y1="112.9531" y2="112.9531"/><rect fill="none" height="6" style="stroke:#C82930;stroke-width:1.0;" width="6" x="15" y="123.6973"/><text fill="#000000" font-family="sans-serif" font-size="14" lengthAdjust="spacing" textLength="390" x="27" y="130.4883">objectToViolations: Map&lt;DBObject, Set&lt;DRCViolation&gt;&gt;</text><rect fill="none" height="6" style="stroke:#C82930;stroke-width:1.0;" width="6" x="15" y="140.1855"/><text fill="#000000" font-family="sans-serif" font-size="14" lengthAdjust="spacing" text-decoration="underline" textLength="207" x="27" y="146.9766">instance : DRCViolationSystem</text></g><g id="elem_GMN11"><path d="M457.5,52.5 L457.5,76.46 L423.18,80.46 L457.5,84.46 L457.5,108.4316 A0,0 0 0 0 457.5,108.4316 L732.5,108.4316 A0,0 0 0 0 732.5,108.4316 L732.5,62.5 L722.5,52.5 L457.5,52.5 A0,0 0 0 0 457.5,52.5 " fill="#FEFFDD" style="stroke:#181818;stroke-width:0.5;"/><path d="M722.5,52.5 L722.5,62.5 L732.5,62.5 L722.5,52.5 " fill="#FEFFDD" style="stroke:#181818;stroke-width:0.5;"/><text fill="#000000" font-family="sans-serif" font-size="13" lengthAdjust="spacing" textLength="112" x="463.5" y="70.0684">Singleton pattern:</text><text fill="#000000" font-family="sans-serif" font-size="13" lengthAdjust="spacing" textLength="254" x="463.5" y="85.3789">- getInstance() returns the only instance</text><text fill="#000000" font-family="sans-serif" font-size="13" lengthAdjust="spacing" textLength="198" x="463.5" y="100.6895">- instance is static (underlined)</text></g><!--link DBObject to Subject--><g id="link_DBObject_Subject"><path codeLine="38" d="M356,520.02 C356,540.09 356,543.86 356,562.6 " fill="none" id="DBObject-to-Subject" style="stroke:#181818;stroke-width:1.0;stroke-dasharray:7.0,7.0;"/><polygon fill="none" points="356,580.6,362,562.6,350,562.6,356,580.6" style="stroke:#181818;stroke-width:1.0;"/></g><!--link DRCViolation to Observer--><g id="link_DRCViolation_Observer"><path codeLine="39" d="M198.17,312.83 C186.18,347.16 176.3361,375.347 165.9261,405.147 " fill="none" id="DRCViolation-to-Observer" style="stroke:#181818;stroke-width:1.0;stroke-dasharray:7.0,7.0;"/><polygon fill="none" points="159.99,422.14,171.5905,407.1257,160.2618,403.1683,159.99,422.14" style="stroke:#181818;stroke-width:1.0;"/></g><!--reverse link DRCViolation to DBObject--><g id="link_DRCViolation_DBObject"><path codeLine="40" d="M258.1247,322.4489 C275.4147,345.6289 289.23,364.13 307.88,389.13 " fill="none" id="DRCViolation-backto-DBObject" style="stroke:#181818;stroke-width:1.0;"/><polygon fill="none" points="250.95,312.83,251.3311,320.031,258.1247,322.4489,257.7437,315.2479,250.95,312.83" style="stroke:#181818;stroke-width:1.0;"/><text fill="#000000" font-family="sans-serif" font-size="13" lengthAdjust="spacing" textLength="56" x="286.5" y="355.9584">observes</text><text fill="#000000" font-family="sans-serif" font-size="13" lengthAdjust="spacing" textLength="22" x="279.4138" y="378.7331">1..*</text></g><!--reverse link DRCViolationSystem to DRCViolation--><g id="link_DRCViolationSystem_DRCViolation"><path codeLine="43" d="M215,166.38 C215,186.64 215,196.12 215,214.57 " fill="none" id="DRCViolationSystem-backto-DRCViolation" style="stroke:#181818;stroke-width:1.0;"/><polygon fill="#181818" points="215,154.38,211,160.38,215,166.38,219,160.38,215,154.38" style="stroke:#181818;stroke-width:1.0;"/><text fill="#000000" font-family="sans-serif" font-size="13" lengthAdjust="spacing" textLength="22" x="191.4531" y="204.2019">1..*</text></g><!--SRC=[lLDDJyCm3BttLrXSzW4juXfDFJ04cWIQn13tjF6sJ6qy9Mcb2lZlXBR9MjG39tffwjZlFTklCzWeYthFSpIHz4VOPWPrZHe-8d3FTNKMtE9y4Nr5WwnTbPqmjpx9L9d9jSnmJdqv2q2B7aVz8KcHbVl61qt7EeCrQGH19PSAye8RunItRtYutuw4IC70M2tLeVi-89LeTSFWgJ-ryJZ-1zszmjVrkwI2MqdAgwnzOFDBRXXsBzvkL4r5ZQBhqW4pU9R6hdpVwJJHhZ4MIq_7XGWtyy3DHXKzfSQIQWnHyqYw8tAzdrWOzs8ezu8zbTCsOInNkUiBs8JCuKPYQclVw2A1mGi_XuPlO8Uk_G58cdQLgogLFT4apUgsQgSLB9CadwatSZHQKtlZjpc-eZY6gxiaMLvTlCUWDuRfp5gUoSWscoi1ExVT0YsfQ693om7Su3PoXaBGyd2qGFlfcGLSE7Fh_al5N326yRmrsaeh0_Q8GAfem8-epGtpaiRPqC7dCA-KG5r8XM8HePF_e-GR]--></g></svg>