<?xml version="1.0" encoding="us-ascii" standalone="no"?><svg xmlns="http://www.w3.org/2000/svg" xmlns:xlink="http://www.w3.org/1999/xlink" contentStyleType="text/css" height="701px" preserveAspectRatio="none" style="width:642px;height:701px;background:#FFFFFF;" version="1.1" viewBox="0 0 642 701" width="642px" zoomAndPan="magnify"><defs/><g><!--class Observer--><g id="elem_Observer"><rect codeLine="2" fill="#F1F1F1" height="64.4883" id="Observer" rx="2.5" ry="2.5" style="stroke:#181818;stroke-width:0.5;" width="94" x="56" y="438.86"/><ellipse cx="71" cy="454.86" fill="#B4A7E5" rx="11" ry="11" style="stroke:#181818;stroke-width:1.0;"/><path d="M67.4277,451.1251 L67.4277,448.9669 L74.8071,448.9669 L74.8071,451.1251 L72.3418,451.1251 L72.3418,459.2018 L74.8071,459.2018 L74.8071,461.36 L67.4277,461.36 L67.4277,459.2018 L69.8931,459.2018 L69.8931,451.1251 Z " fill="#000000"/><text fill="#000000" font-family="sans-serif" font-size="14" font-style="italic" lengthAdjust="spacing" textLength="62" x="85" y="460.151">Observer</text><line style="stroke:#181818;stroke-width:0.5;" x1="57" x2="149" y1="470.86" y2="470.86"/><line style="stroke:#181818;stroke-width:0.5;" x1="57" x2="149" y1="478.86" y2="478.86"/><ellipse cx="67" cy="492.6041" fill="#84BE84" rx="3" ry="3" style="stroke:#038048;stroke-width:1.0;"/><text fill="#000000" font-family="sans-serif" font-size="14" lengthAdjust="spacing" textLength="58" x="76" y="496.3952">update()</text></g><!--class Subject--><g id="elem_Subject"><rect codeLine="6" fill="#F1F1F1" height="97.4648" id="Subject" rx="2.5" ry="2.5" style="stroke:#181818;stroke-width:0.5;" width="250" x="185" y="597.33"/><ellipse cx="280.75" cy="613.33" fill="#B4A7E5" rx="11" ry="11" style="stroke:#181818;stroke-width:1.0;"/><path d="M277.1777,609.5951 L277.1777,607.4369 L284.5571,607.4369 L284.5571,609.5951 L282.0918,609.5951 L282.0918,617.6718 L284.5571,617.6718 L284.5571,619.83 L277.1777,619.83 L277.1777,617.6718 L279.6431,617.6718 L279.6431,609.5951 Z " fill="#000000"/><text fill="#000000" font-family="sans-serif" font-size="14" font-style="italic" lengthAdjust="spacing" textLength="50" x="301.25" y="618.621">Subject</text><line style="stroke:#181818;stroke-width:0.5;" x1="186" x2="434" y1="629.33" y2="629.33"/><line style="stroke:#181818;stroke-width:0.5;" x1="186" x2="434" y1="637.33" y2="637.33"/><ellipse cx="196" cy="651.0741" fill="#84BE84" rx="3" ry="3" style="stroke:#038048;stroke-width:1.0;"/><text fill="#000000" font-family="sans-serif" font-size="14" lengthAdjust="spacing" textLength="206" x="205" y="654.8652">subscribe(observer: Observer)</text><ellipse cx="196" cy="667.5624" fill="#84BE84" rx="3" ry="3" style="stroke:#038048;stroke-width:1.0;"/><text fill="#000000" font-family="sans-serif" font-size="14" lengthAdjust="spacing" textLength="224" x="205" y="671.3534">unsubscribe(observer: Observer)</text><ellipse cx="196" cy="684.0507" fill="#84BE84" rx="3" ry="3" style="stroke:#038048;stroke-width:1.0;"/><text fill="#000000" font-family="sans-serif" font-size="14" lengthAdjust="spacing" textLength="118" x="205" y="687.8417">notifyObservers()</text></g><!--class DBObject--><g id="elem_DBObject"><rect codeLine="13" fill="#F1F1F1" height="130.4414" id="DBObject" rx="2.5" ry="2.5" style="stroke:#181818;stroke-width:0.5;" width="250" x="185" y="405.88"/><ellipse cx="274.75" cy="421.88" fill="#ADD1B2" rx="11" ry="11" style="stroke:#181818;stroke-width:1.0;"/><path d="M277.2231,428.0231 Q276.6421,428.3219 276.0029,428.4713 Q275.3638,428.6207 274.6582,428.6207 Q272.1514,428.6207 270.8315,426.9689 Q269.5117,425.317 269.5117,422.1959 Q269.5117,419.0665 270.8315,417.4147 Q272.1514,415.7628 274.6582,415.7628 Q275.3638,415.7628 276.0112,415.9122 Q276.6587,416.0616 277.2231,416.3605 L277.2231,419.0831 Q276.5923,418.5021 275.9988,418.2323 Q275.4053,417.9625 274.7744,417.9625 Q273.4297,417.9625 272.7449,419.0292 Q272.0601,420.0958 272.0601,422.1959 Q272.0601,424.2877 272.7449,425.3544 Q273.4297,426.421 274.7744,426.421 Q275.4053,426.421 275.9988,426.1512 Q276.5923,425.8815 277.2231,425.3004 Z " fill="#000000"/><text fill="#000000" font-family="sans-serif" font-size="14" lengthAdjust="spacing" textLength="62" x="295.25" y="427.171">DBObject</text><line style="stroke:#181818;stroke-width:0.5;" x1="186" x2="434" y1="437.88" y2="437.88"/><rect fill="none" height="6" style="stroke:#C82930;stroke-width:1.0;" width="6" x="193" y="448.6241"/><text fill="#000000" font-family="sans-serif" font-size="14" lengthAdjust="spacing" textLength="61" x="205" y="455.4152">id: string</text><rect fill="none" height="6" style="stroke:#C82930;stroke-width:1.0;" width="6" x="193" y="465.1124"/><text fill="#000000" font-family="sans-serif" font-size="14" lengthAdjust="spacing" textLength="180" x="205" y="471.9034">observers: Set&lt;Observer&gt;</text><line style="stroke:#181818;stroke-width:1.0;" x1="186" x2="434" y1="478.8566" y2="478.8566"/><ellipse cx="196" cy="492.6007" fill="#84BE84" rx="3" ry="3" style="stroke:#038048;stroke-width:1.0;"/><text fill="#000000" font-family="sans-serif" font-size="14" lengthAdjust="spacing" textLength="206" x="205" y="496.3917">subscribe(observer: Observer)</text><ellipse cx="196" cy="509.089" fill="#84BE84" rx="3" ry="3" style="stroke:#038048;stroke-width:1.0;"/><text fill="#000000" font-family="sans-serif" font-size="14" lengthAdjust="spacing" textLength="224" x="205" y="512.88">unsubscribe(observer: Observer)</text><ellipse cx="196" cy="525.5773" fill="#84BE84" rx="3" ry="3" style="stroke:#038048;stroke-width:1.0;"/><text fill="#000000" font-family="sans-serif" font-size="14" lengthAdjust="spacing" textLength="118" x="205" y="529.3683">notifyObservers()</text></g><!--class DRCViolation--><g id="elem_DRCViolation"><rect codeLine="22" fill="#F1F1F1" height="113.9531" id="DRCViolation" rx="2.5" ry="2.5" style="stroke:#181818;stroke-width:0.5;" width="324" x="7" y="214.93"/><ellipse cx="119.75" cy="230.93" fill="#ADD1B2" rx="11" ry="11" style="stroke:#181818;stroke-width:1.0;"/><path d="M122.2231,237.0731 Q121.6421,237.3719 121.0029,237.5213 Q120.3638,237.6707 119.6582,237.6707 Q117.1514,237.6707 115.8315,236.0189 Q114.5117,234.367 114.5117,231.2459 Q114.5117,228.1165 115.8315,226.4647 Q117.1514,224.8128 119.6582,224.8128 Q120.3638,224.8128 121.0112,224.9622 Q121.6587,225.1116 122.2231,225.4105 L122.2231,228.1331 Q121.5923,227.5521 120.9988,227.2823 Q120.4053,227.0125 119.7744,227.0125 Q118.4297,227.0125 117.7449,228.0792 Q117.0601,229.1458 117.0601,231.2459 Q117.0601,233.3377 117.7449,234.4044 Q118.4297,235.471 119.7744,235.471 Q120.4053,235.471 120.9988,235.2012 Q121.5923,234.9315 122.2231,234.3504 Z " fill="#000000"/><text fill="#000000" font-family="sans-serif" font-size="14" lengthAdjust="spacing" textLength="90" x="140.25" y="236.221">DRCViolation</text><line style="stroke:#181818;stroke-width:0.5;" x1="8" x2="330" y1="246.93" y2="246.93"/><rect fill="none" height="6" style="stroke:#C82930;stroke-width:1.0;" width="6" x="15" y="257.6741"/><text fill="#000000" font-family="sans-serif" font-size="14" lengthAdjust="spacing" textLength="120" x="27" y="264.4652">violationId: string</text><rect fill="none" height="6" style="stroke:#C82930;stroke-width:1.0;" width="6" x="15" y="274.1624"/><text fill="#000000" font-family="sans-serif" font-size="14" lengthAdjust="spacing" textLength="270" x="27" y="280.9534">involvedObjectIds : pair&lt;string, string&gt;</text><line style="stroke:#181818;stroke-width:1.0;" x1="8" x2="330" y1="287.9066" y2="287.9066"/><ellipse cx="18" cy="301.6507" fill="#84BE84" rx="3" ry="3" style="stroke:#038048;stroke-width:1.0;"/><text fill="#000000" font-family="sans-serif" font-size="14" lengthAdjust="spacing" textLength="58" x="27" y="305.4417">update()</text><ellipse cx="18" cy="318.139" fill="#84BE84" rx="3" ry="3" style="stroke:#038048;stroke-width:1.0;"/><text fill="#000000" font-family="sans-serif" font-size="14" lengthAdjust="spacing" textLength="298" x="27" y="321.93">getInvolvedObjectIds(): pair&lt;string, string&gt;</text></g><!--class DRCEngine--><g id="elem_DRCEngine"><rect codeLine="30" fill="#F1F1F1" height="146.9297" id="DRCEngine" rx="2.5" ry="2.5" style="stroke:#181818;stroke-width:0.5;" width="314" x="12" y="7"/><ellipse cx="126.75" cy="23" fill="#ADD1B2" rx="11" ry="11" style="stroke:#181818;stroke-width:1.0;"/><path d="M129.2231,29.1431 Q128.6421,29.4419 128.0029,29.5913 Q127.3638,29.7407 126.6582,29.7407 Q124.1514,29.7407 122.8315,28.0889 Q121.5117,26.437 121.5117,23.3159 Q121.5117,20.1865 122.8315,18.5347 Q124.1514,16.8828 126.6582,16.8828 Q127.3638,16.8828 128.0112,17.0322 Q128.6587,17.1816 129.2231,17.4805 L129.2231,20.2031 Q128.5923,19.6221 127.9988,19.3523 Q127.4053,19.0825 126.7744,19.0825 Q125.4297,19.0825 124.7449,20.1492 Q124.0601,21.2158 124.0601,23.3159 Q124.0601,25.4077 124.7449,26.4744 Q125.4297,27.541 126.7744,27.541 Q127.4053,27.541 127.9988,27.2712 Q128.5923,27.0015 129.2231,26.4204 Z " fill="#000000"/><text fill="#000000" font-family="sans-serif" font-size="14" lengthAdjust="spacing" textLength="76" x="147.25" y="28.291">DRCEngine</text><line style="stroke:#181818;stroke-width:0.5;" x1="13" x2="325" y1="39" y2="39"/><rect fill="none" height="6" style="stroke:#C82930;stroke-width:1.0;" width="6" x="20" y="49.7441"/><text fill="#000000" font-family="sans-serif" font-size="14" lengthAdjust="spacing" textLength="223" x="32" y="56.5352">objectViolations: Set&lt;DBObject&gt;</text><rect fill="none" height="6" style="stroke:#C82930;stroke-width:1.0;" width="6" x="20" y="66.2324"/><text fill="#000000" font-family="sans-serif" font-size="14" lengthAdjust="spacing" text-decoration="underline" textLength="145" x="32" y="73.0234">instance : DRCEngine</text><line style="stroke:#181818;stroke-width:1.0;" x1="13" x2="325" y1="79.9766" y2="79.9766"/><ellipse cx="23" cy="93.7207" fill="#84BE84" rx="3" ry="3" style="stroke:#038048;stroke-width:1.0;"/><text fill="#000000" font-family="sans-serif" font-size="14" lengthAdjust="spacing" textLength="254" x="32" y="97.5117">addViolation(violation: DRCViolation)</text><ellipse cx="23" cy="110.209" fill="#84BE84" rx="3" ry="3" style="stroke:#038048;stroke-width:1.0;"/><text fill="#000000" font-family="sans-serif" font-size="14" lengthAdjust="spacing" textLength="288" x="32" y="114">removeViolationsForObject(obj: DBObject)</text><ellipse cx="23" cy="126.6973" fill="#84BE84" rx="3" ry="3" style="stroke:#038048;stroke-width:1.0;"/><text fill="#000000" font-family="sans-serif" font-size="14" lengthAdjust="spacing" textLength="211" x="32" y="130.4883">updateViolation(obj: DBObject)</text><ellipse cx="23" cy="143.1855" fill="#84BE84" rx="3" ry="3" style="stroke:#038048;stroke-width:1.0;"/><text fill="#000000" font-family="sans-serif" font-size="14" lengthAdjust="spacing" textLength="177" x="32" y="146.9766">getInstance() : DRCEngine</text></g><g id="elem_GMN11"><path d="M360.5,52.5 L360.5,76.47 L326.43,80.47 L360.5,84.47 L360.5,108.4316 A0,0 0 0 0 360.5,108.4316 L635.5,108.4316 A0,0 0 0 0 635.5,108.4316 L635.5,62.5 L625.5,52.5 L360.5,52.5 A0,0 0 0 0 360.5,52.5 " fill="#FEFFDD" style="stroke:#181818;stroke-width:0.5;"/><path d="M625.5,52.5 L625.5,62.5 L635.5,62.5 L625.5,52.5 " fill="#FEFFDD" style="stroke:#181818;stroke-width:0.5;"/><text fill="#000000" font-family="sans-serif" font-size="13" lengthAdjust="spacing" textLength="112" x="366.5" y="70.0684">Singleton pattern:</text><text fill="#000000" font-family="sans-serif" font-size="13" lengthAdjust="spacing" textLength="254" x="366.5" y="85.3789">- getInstance() returns the only instance</text><text fill="#000000" font-family="sans-serif" font-size="13" lengthAdjust="spacing" textLength="198" x="366.5" y="100.6895">- instance is static (underlined)</text></g><!--link DBObject to Subject--><g id="link_DBObject_Subject"><path codeLine="40" d="M310,536.51 C310,556.58 310,560.35 310,579.09 " fill="none" id="DBObject-to-Subject" style="stroke:#181818;stroke-width:1.0;stroke-dasharray:7.0,7.0;"/><polygon fill="none" points="310,597.09,316,579.09,304,579.09,310,597.09" style="stroke:#181818;stroke-width:1.0;"/></g><!--link DRCViolation to Observer--><g id="link_DRCViolation_Observer"><path codeLine="41" d="M150.18,329.15 C138.29,364.67 129.083,392.1707 119.243,421.5707 " fill="none" id="DRCViolation-to-Observer" style="stroke:#181818;stroke-width:1.0;stroke-dasharray:7.0,7.0;"/><polygon fill="none" points="113.53,438.64,124.9328,423.475,113.5532,419.6663,113.53,438.64" style="stroke:#181818;stroke-width:1.0;"/></g><!--link DRCViolation to DBObject--><g id="link_DRCViolation_DBObject"><path codeLine="42" d="M209.22,329.15 C226.23,352.94 239.1725,371.0371 256.7825,395.6771 " fill="none" id="DRCViolation-to-DBObject" style="stroke:#181818;stroke-width:1.0;"/><polygon fill="none" points="263.76,405.44,263.5256,398.2327,256.7825,395.6771,257.017,402.8844,263.76,405.44" style="stroke:#181818;stroke-width:1.0;"/><text fill="#000000" font-family="sans-serif" font-size="13" lengthAdjust="spacing" textLength="56" x="240.5" y="372.4484">observes</text><text fill="#000000" font-family="sans-serif" font-size="13" lengthAdjust="spacing" textLength="22" x="190.7812" y="349.6279">1..*</text><text fill="#000000" font-family="sans-serif" font-size="13" lengthAdjust="spacing" textLength="24" x="233.39" y="395.0234">1..2</text></g><!--reverse link DRCEngine to DRCViolation--><g id="link_DRCEngine_DRCViolation"><path codeLine="45" d="M169,166.17 C169,186.2 169,195.63 169,214.58 " fill="none" id="DRCEngine-backto-DRCViolation" style="stroke:#181818;stroke-width:1.0;"/><polygon fill="#181818" points="169,154.17,165,160.17,169,166.17,173,160.17,169,154.17" style="stroke:#181818;stroke-width:1.0;"/></g><!--SRC=[lLCzJyCm4DtpAqvTcW0fWj6gEb10weH49NOtlhQkqdDbEv6gmd_7EBQJ892Oo9BuV1_ltNkPmeeiwYslq6GoViBBng1kKSCb0_TSDoV1BUP5zf4DijRDve2LZKccsPXAomtcAfIprAW8VUWFIQIit9vZq7HJfx1K6a6e8vS4LSsDSOZz6nuVNeP0IYaO6AibxRwENInECmpMQEUn-o8bbFz08i1zNRv9LNCh5S6bXzZ6u2hX3toeLNMBecEv4WOOdBZKyoxf9YGlHaIIPFwqGxlwtYKlVcapHFf4EqaODwjyRK8VbXdt7m3CcuKaOpavYx2-n_os6IFaGgHEUIBFHli9y3KULOlzt6Ubkv5EW0DB1YY6rFlUF-NuXNGWys88q-lXDf1CDPkzBwBLiv5s_YPAFBwQtCrcLnD7LVdF-qblKWR1DAPpzV6aZFH5d0IidG8rMaLPZ-YgB4TBoPov4BJSxIseRG_TCKlbJbdh_bDYBbZ2cAr6ssWoOFS8YkepHBbyRj9E6kS8Dx22l261kdOZH96XG_a5u1C0]--></g></svg>