<?xml version="1.0" encoding="us-ascii" standalone="no"?><svg xmlns="http://www.w3.org/2000/svg" xmlns:xlink="http://www.w3.org/1999/xlink" contentStyleType="text/css" height="685px" preserveAspectRatio="none" style="width:739px;height:685px;background:#FFFFFF;" version="1.1" viewBox="0 0 739 685" width="739px" zoomAndPan="magnify"><defs/><g><!--class Observer--><g id="elem_Observer"><rect codeLine="2" fill="#F1F1F1" height="64.4883" id="Observer" rx="2.5" ry="2.5" style="stroke:#181818;stroke-width:0.5;" width="172" x="100" y="422.37"/><ellipse cx="150.75" cy="438.37" fill="#B4A7E5" rx="11" ry="11" style="stroke:#181818;stroke-width:1.0;"/><path d="M147.1777,434.6351 L147.1777,432.4769 L154.5571,432.4769 L154.5571,434.6351 L152.0918,434.6351 L152.0918,442.7118 L154.5571,442.7118 L154.5571,444.87 L147.1777,444.87 L147.1777,442.7118 L149.6431,442.7118 L149.6431,434.6351 Z " fill="#000000"/><text fill="#000000" font-family="sans-serif" font-size="14" font-style="italic" lengthAdjust="spacing" textLength="62" x="171.25" y="443.661">Observer</text><line style="stroke:#181818;stroke-width:0.5;" x1="101" x2="271" y1="454.37" y2="454.37"/><line style="stroke:#181818;stroke-width:0.5;" x1="101" x2="271" y1="462.37" y2="462.37"/><ellipse cx="111" cy="476.1141" fill="#84BE84" rx="3" ry="3" style="stroke:#038048;stroke-width:1.0;"/><text fill="#000000" font-family="sans-serif" font-size="14" lengthAdjust="spacing" textLength="146" x="120" y="479.9052">update(DBObject obj)</text></g><!--class Subject--><g id="elem_Subject"><rect codeLine="6" fill="#F1F1F1" height="97.4648" id="Subject" rx="2.5" ry="2.5" style="stroke:#181818;stroke-width:0.5;" width="250" x="307" y="580.84"/><ellipse cx="402.75" cy="596.84" fill="#B4A7E5" rx="11" ry="11" style="stroke:#181818;stroke-width:1.0;"/><path d="M399.1777,593.1051 L399.1777,590.9469 L406.5571,590.9469 L406.5571,593.1051 L404.0918,593.1051 L404.0918,601.1818 L406.5571,601.1818 L406.5571,603.34 L399.1777,603.34 L399.1777,601.1818 L401.6431,601.1818 L401.6431,593.1051 Z " fill="#000000"/><text fill="#000000" font-family="sans-serif" font-size="14" font-style="italic" lengthAdjust="spacing" textLength="50" x="423.25" y="602.131">Subject</text><line style="stroke:#181818;stroke-width:0.5;" x1="308" x2="556" y1="612.84" y2="612.84"/><line style="stroke:#181818;stroke-width:0.5;" x1="308" x2="556" y1="620.84" y2="620.84"/><ellipse cx="318" cy="634.5841" fill="#84BE84" rx="3" ry="3" style="stroke:#038048;stroke-width:1.0;"/><text fill="#000000" font-family="sans-serif" font-size="14" lengthAdjust="spacing" textLength="206" x="327" y="638.3752">subscribe(observer: Observer)</text><ellipse cx="318" cy="651.0724" fill="#84BE84" rx="3" ry="3" style="stroke:#038048;stroke-width:1.0;"/><text fill="#000000" font-family="sans-serif" font-size="14" lengthAdjust="spacing" textLength="224" x="327" y="654.8634">unsubscribe(observer: Observer)</text><ellipse cx="318" cy="667.5607" fill="#84BE84" rx="3" ry="3" style="stroke:#038048;stroke-width:1.0;"/><text fill="#000000" font-family="sans-serif" font-size="14" lengthAdjust="spacing" textLength="118" x="327" y="671.3517">notifyObservers()</text></g><!--class DBObject--><g id="elem_DBObject"><rect codeLine="13" fill="#F1F1F1" height="130.4414" id="DBObject" rx="2.5" ry="2.5" style="stroke:#181818;stroke-width:0.5;" width="250" x="307" y="389.39"/><ellipse cx="396.75" cy="405.39" fill="#ADD1B2" rx="11" ry="11" style="stroke:#181818;stroke-width:1.0;"/><path d="M399.2231,411.5331 Q398.6421,411.8319 398.0029,411.9813 Q397.3638,412.1307 396.6582,412.1307 Q394.1514,412.1307 392.8315,410.4789 Q391.5117,408.827 391.5117,405.7059 Q391.5117,402.5765 392.8315,400.9247 Q394.1514,399.2728 396.6582,399.2728 Q397.3638,399.2728 398.0112,399.4222 Q398.6587,399.5716 399.2231,399.8705 L399.2231,402.5931 Q398.5923,402.0121 397.9988,401.7423 Q397.4053,401.4725 396.7744,401.4725 Q395.4297,401.4725 394.7449,402.5392 Q394.0601,403.6058 394.0601,405.7059 Q394.0601,407.7977 394.7449,408.8644 Q395.4297,409.931 396.7744,409.931 Q397.4053,409.931 397.9988,409.6612 Q398.5923,409.3915 399.2231,408.8104 Z " fill="#000000"/><text fill="#000000" font-family="sans-serif" font-size="14" lengthAdjust="spacing" textLength="62" x="417.25" y="410.681">DBObject</text><line style="stroke:#181818;stroke-width:0.5;" x1="308" x2="556" y1="421.39" y2="421.39"/><ellipse cx="318" cy="435.1341" fill="none" rx="3" ry="3" style="stroke:#038048;stroke-width:1.0;"/><text fill="#000000" font-family="sans-serif" font-size="14" lengthAdjust="spacing" textLength="61" x="327" y="438.9252">id: string</text><ellipse cx="318" cy="451.6224" fill="none" rx="3" ry="3" style="stroke:#038048;stroke-width:1.0;"/><text fill="#000000" font-family="sans-serif" font-size="14" lengthAdjust="spacing" textLength="139" x="327" y="455.4134">geometry: Geometry</text><line style="stroke:#181818;stroke-width:1.0;" x1="308" x2="556" y1="462.3666" y2="462.3666"/><ellipse cx="318" cy="476.1107" fill="#84BE84" rx="3" ry="3" style="stroke:#038048;stroke-width:1.0;"/><text fill="#000000" font-family="sans-serif" font-size="14" lengthAdjust="spacing" textLength="206" x="327" y="479.9017">subscribe(observer: Observer)</text><ellipse cx="318" cy="492.599" fill="#84BE84" rx="3" ry="3" style="stroke:#038048;stroke-width:1.0;"/><text fill="#000000" font-family="sans-serif" font-size="14" lengthAdjust="spacing" textLength="224" x="327" y="496.39">unsubscribe(observer: Observer)</text><ellipse cx="318" cy="509.0873" fill="#84BE84" rx="3" ry="3" style="stroke:#038048;stroke-width:1.0;"/><text fill="#000000" font-family="sans-serif" font-size="14" lengthAdjust="spacing" textLength="118" x="327" y="512.8783">notifyObservers()</text></g><!--class DRCViolation--><g id="elem_DRCViolation"><rect codeLine="22" fill="#F1F1F1" height="97.4648" id="DRCViolation" rx="2.5" ry="2.5" style="stroke:#181818;stroke-width:0.5;" width="281" x="74.5" y="214.93"/><ellipse cx="165.75" cy="230.93" fill="#ADD1B2" rx="11" ry="11" style="stroke:#181818;stroke-width:1.0;"/><path d="M168.2231,237.0731 Q167.6421,237.3719 167.0029,237.5213 Q166.3638,237.6707 165.6582,237.6707 Q163.1514,237.6707 161.8315,236.0189 Q160.5117,234.367 160.5117,231.2459 Q160.5117,228.1165 161.8315,226.4647 Q163.1514,224.8128 165.6582,224.8128 Q166.3638,224.8128 167.0112,224.9622 Q167.6587,225.1116 168.2231,225.4105 L168.2231,228.1331 Q167.5923,227.5521 166.9988,227.2823 Q166.4053,227.0125 165.7744,227.0125 Q164.4297,227.0125 163.7449,228.0792 Q163.0601,229.1458 163.0601,231.2459 Q163.0601,233.3377 163.7449,234.4044 Q164.4297,235.471 165.7744,235.471 Q166.4053,235.471 166.9988,235.2012 Q167.5923,234.9315 168.2231,234.3504 Z " fill="#000000"/><text fill="#000000" font-family="sans-serif" font-size="14" lengthAdjust="spacing" textLength="90" x="186.25" y="236.221">DRCViolation</text><line style="stroke:#181818;stroke-width:0.5;" x1="75.5" x2="354.5" y1="246.93" y2="246.93"/><ellipse cx="85.5" cy="260.6741" fill="none" rx="3" ry="3" style="stroke:#038048;stroke-width:1.0;"/><text fill="#000000" font-family="sans-serif" font-size="14" lengthAdjust="spacing" textLength="120" x="94.5" y="264.4652">violationId: string</text><line style="stroke:#181818;stroke-width:0.5;" x1="75.5" x2="354.5" y1="271.4183" y2="271.4183"/><ellipse cx="85.5" cy="285.1624" fill="#84BE84" rx="3" ry="3" style="stroke:#038048;stroke-width:1.0;"/><text fill="#000000" font-family="sans-serif" font-size="14" lengthAdjust="spacing" textLength="146" x="94.5" y="288.9534">update(DBObject obj)</text><ellipse cx="85.5" cy="301.6507" fill="#84BE84" rx="3" ry="3" style="stroke:#038048;stroke-width:1.0;"/><text fill="#000000" font-family="sans-serif" font-size="14" lengthAdjust="spacing" textLength="255" x="94.5" y="305.4417">getInvolvedObjects(): List&lt;DBObject&gt;</text></g><!--class DRCViolationSystem--><g id="elem_DRCViolationSystem"><rect codeLine="28" fill="#F1F1F1" height="146.9297" id="DRCViolationSystem" rx="2.5" ry="2.5" style="stroke:#181818;stroke-width:0.5;" width="416" x="7" y="7"/><ellipse cx="141.75" cy="23" fill="#ADD1B2" rx="11" ry="11" style="stroke:#181818;stroke-width:1.0;"/><path d="M144.2231,29.1431 Q143.6421,29.4419 143.0029,29.5913 Q142.3638,29.7407 141.6582,29.7407 Q139.1514,29.7407 137.8315,28.0889 Q136.5117,26.437 136.5117,23.3159 Q136.5117,20.1865 137.8315,18.5347 Q139.1514,16.8828 141.6582,16.8828 Q142.3638,16.8828 143.0112,17.0322 Q143.6587,17.1816 144.2231,17.4805 L144.2231,20.2031 Q143.5923,19.6221 142.9988,19.3523 Q142.4053,19.0825 141.7744,19.0825 Q140.4297,19.0825 139.7449,20.1492 Q139.0601,21.2158 139.0601,23.3159 Q139.0601,25.4077 139.7449,26.4744 Q140.4297,27.541 141.7744,27.541 Q142.4053,27.541 142.9988,27.2712 Q143.5923,27.0015 144.2231,26.4204 Z " fill="#000000"/><text fill="#000000" font-family="sans-serif" font-size="14" lengthAdjust="spacing" textLength="138" x="162.25" y="28.291">DRCViolationSystem</text><line style="stroke:#181818;stroke-width:0.5;" x1="8" x2="422" y1="39" y2="39"/><ellipse cx="18" cy="52.7441" fill="#84BE84" rx="3" ry="3" style="stroke:#038048;stroke-width:1.0;"/><text fill="#000000" font-family="sans-serif" font-size="14" lengthAdjust="spacing" textLength="254" x="27" y="56.5352">addViolation(violation: DRCViolation)</text><ellipse cx="18" cy="69.2324" fill="#84BE84" rx="3" ry="3" style="stroke:#038048;stroke-width:1.0;"/><text fill="#000000" font-family="sans-serif" font-size="14" lengthAdjust="spacing" textLength="288" x="27" y="73.0234">removeViolationsForObject(obj: DBObject)</text><ellipse cx="18" cy="85.7207" fill="#84BE84" rx="3" ry="3" style="stroke:#038048;stroke-width:1.0;"/><text fill="#000000" font-family="sans-serif" font-size="14" lengthAdjust="spacing" textLength="211" x="27" y="89.5117">updateViolation(obj: DBObject)</text><ellipse cx="18" cy="102.209" fill="#84BE84" rx="3" ry="3" style="stroke:#038048;stroke-width:1.0;"/><text fill="#000000" font-family="sans-serif" font-size="14" lengthAdjust="spacing" textLength="239" x="27" y="106">getInstance() : DRCViolationSystem</text><line style="stroke:#181818;stroke-width:1.0;" x1="8" x2="422" y1="112.9531" y2="112.9531"/><rect fill="none" height="6" style="stroke:#C82930;stroke-width:1.0;" width="6" x="15" y="123.6973"/><text fill="#000000" font-family="sans-serif" font-size="14" lengthAdjust="spacing" textLength="390" x="27" y="130.4883">objectToViolations: Map&lt;DBObject, Set&lt;DRCViolation&gt;&gt;</text><rect fill="none" height="6" style="stroke:#C82930;stroke-width:1.0;" width="6" x="15" y="140.1855"/><text fill="#000000" font-family="sans-serif" font-size="14" lengthAdjust="spacing" text-decoration="underline" textLength="207" x="27" y="146.9766">instance : DRCViolationSystem</text></g><g id="elem_GMN11"><path d="M457.5,52.5 L457.5,76.46 L423.18,80.46 L457.5,84.46 L457.5,108.4316 A0,0 0 0 0 457.5,108.4316 L732.5,108.4316 A0,0 0 0 0 732.5,108.4316 L732.5,62.5 L722.5,52.5 L457.5,52.5 A0,0 0 0 0 457.5,52.5 " fill="#FEFFDD" style="stroke:#181818;stroke-width:0.5;"/><path d="M722.5,52.5 L722.5,62.5 L732.5,62.5 L722.5,52.5 " fill="#FEFFDD" style="stroke:#181818;stroke-width:0.5;"/><text fill="#000000" font-family="sans-serif" font-size="13" lengthAdjust="spacing" textLength="112" x="463.5" y="70.0684">Singleton pattern:</text><text fill="#000000" font-family="sans-serif" font-size="13" lengthAdjust="spacing" textLength="254" x="463.5" y="85.3789">- getInstance() returns the only instance</text><text fill="#000000" font-family="sans-serif" font-size="13" lengthAdjust="spacing" textLength="198" x="463.5" y="100.6895">- instance is static (underlined)</text></g><!--link DBObject to Subject--><g id="link_DBObject_Subject"><path codeLine="38" d="M432,520.02 C432,540.09 432,543.86 432,562.6 " fill="none" id="DBObject-to-Subject" style="stroke:#181818;stroke-width:1.0;stroke-dasharray:7.0,7.0;"/><polygon fill="none" points="432,580.6,438,562.6,426,562.6,432,580.6" style="stroke:#181818;stroke-width:1.0;"/></g><!--link DRCViolation to Observer--><g id="link_DRCViolation_Observer"><path codeLine="39" d="M207.61,312.83 C202.34,347.16 198.1285,374.548 193.5585,404.348 " fill="none" id="DRCViolation-to-Observer" style="stroke:#181818;stroke-width:1.0;stroke-dasharray:7.0,7.0;"/><polygon fill="none" points="190.83,422.14,199.4892,405.2575,187.6278,403.4385,190.83,422.14" style="stroke:#181818;stroke-width:1.0;"/></g><!--link DRCViolation to DBObject--><g id="link_DRCViolation_DBObject"><path codeLine="40" d="M270.32,312.83 C296.94,336.01 324.7158,360.189 353.4158,385.189 " fill="none" id="DRCViolation-to-DBObject" style="stroke:#181818;stroke-width:1.0;"/><polygon fill="#181818" points="357.94,389.13,353.781,380.2024,354.1698,385.8459,348.5263,386.2347,357.94,389.13" style="stroke:#181818;stroke-width:1.0;"/><text fill="#000000" font-family="sans-serif" font-size="13" lengthAdjust="spacing" textLength="56" x="324.5" y="355.9584">observes</text><text fill="#000000" font-family="sans-serif" font-size="13" lengthAdjust="spacing" textLength="22" x="326.6366" y="378.7331">1..*</text></g><!--reverse link DRCViolationSystem to DRCViolation--><g id="link_DRCViolationSystem_DRCViolation"><path codeLine="43" d="M215,166.38 C215,186.64 215,196.12 215,214.57 " fill="none" id="DRCViolationSystem-backto-DRCViolation" style="stroke:#181818;stroke-width:1.0;"/><polygon fill="#181818" points="215,154.38,211,160.38,215,166.38,219,160.38,215,154.38" style="stroke:#181818;stroke-width:1.0;"/><text fill="#000000" font-family="sans-serif" font-size="13" lengthAdjust="spacing" textLength="22" x="191.4531" y="204.2019">1..*</text></g><!--SRC=[lLCzJyCm4DtpAquiJGefOhMg31I1Ae4gKSJknDVMLM97jXEf0luxnh7T56LW8akS-tZl-Trb1cjXKEreXJhXuGYRKgFgKS570lQvxbf63QOFzvloY9K1MHwpv2iPTMox8UCRT5VgIl4IK-cXI0JDFARuGv6GXkzE8QXJnpg3bLG8J3QK2wXgghLLxzuG9NeXd17GHd6n7xxtA1iqwaJWoPzSFC__GRTN-BfwvxAcXaiHLFOXiFubTz9uVn6p5hsiUsH3pf8GUERQB4DrCKswFMc3JQ2cZCLC6dMGYmvFgR2HFSQeVfHg8B8-74cqFXjBFsDFrRXBQ4D5XMa6P4BcU3gvTBrlyYo1m0jjuuLlO8ls-YEGeXWwbrt1FT4apVAsSsv5enUBpo8iTN8nCfS9axrCvNa1LtUBnVpgl8S4_9BeON6RLchkggbWiBMJhj58aKnCQ9xd4MwKJUno8IY-FzXzs4rx5d6XfSR-euBOO0wNVYiqdH8Qp051Yle4mI9N6_tYsgwaXQyWxGH3LNE1B4lGolzHyWq0]--></g></svg>