<?xml version="1.0" encoding="us-ascii" standalone="no"?><svg xmlns="http://www.w3.org/2000/svg" xmlns:xlink="http://www.w3.org/1999/xlink" contentStyleType="text/css" height="751px" preserveAspectRatio="none" style="width:821px;height:751px;background:#FFFFFF;" version="1.1" viewBox="0 0 821 751" width="821px" zoomAndPan="magnify"><defs/><g><!--class Observer--><g id="elem_Observer"><rect codeLine="2" fill="#F1F1F1" height="64.4883" id="Observer" rx="2.5" ry="2.5" style="stroke:#181818;stroke-width:0.5;" width="94" x="427" y="480.08"/><ellipse cx="442" cy="496.08" fill="#B4A7E5" rx="11" ry="11" style="stroke:#181818;stroke-width:1.0;"/><path d="M438.4277,492.3451 L438.4277,490.1869 L445.8071,490.1869 L445.8071,492.3451 L443.3418,492.3451 L443.3418,500.4218 L445.8071,500.4218 L445.8071,502.58 L438.4277,502.58 L438.4277,500.4218 L440.8931,500.4218 L440.8931,492.3451 Z " fill="#000000"/><text fill="#000000" font-family="sans-serif" font-size="14" font-style="italic" lengthAdjust="spacing" textLength="62" x="456" y="501.371">Observer</text><line style="stroke:#181818;stroke-width:0.5;" x1="428" x2="520" y1="512.08" y2="512.08"/><line style="stroke:#181818;stroke-width:0.5;" x1="428" x2="520" y1="520.08" y2="520.08"/><ellipse cx="438" cy="533.8241" fill="#84BE84" rx="3" ry="3" style="stroke:#038048;stroke-width:1.0;"/><text fill="#000000" font-family="sans-serif" font-size="14" lengthAdjust="spacing" textLength="58" x="447" y="537.6152">update()</text></g><!--class Subject--><g id="elem_Subject"><rect codeLine="6" fill="#F1F1F1" height="97.4648" id="Subject" rx="2.5" ry="2.5" style="stroke:#181818;stroke-width:0.5;" width="250" x="127" y="646.79"/><ellipse cx="222.75" cy="662.79" fill="#B4A7E5" rx="11" ry="11" style="stroke:#181818;stroke-width:1.0;"/><path d="M219.1777,659.0551 L219.1777,656.8969 L226.5571,656.8969 L226.5571,659.0551 L224.0918,659.0551 L224.0918,667.1318 L226.5571,667.1318 L226.5571,669.29 L219.1777,669.29 L219.1777,667.1318 L221.6431,667.1318 L221.6431,659.0551 Z " fill="#000000"/><text fill="#000000" font-family="sans-serif" font-size="14" font-style="italic" lengthAdjust="spacing" textLength="50" x="243.25" y="668.081">Subject</text><line style="stroke:#181818;stroke-width:0.5;" x1="128" x2="376" y1="678.79" y2="678.79"/><line style="stroke:#181818;stroke-width:0.5;" x1="128" x2="376" y1="686.79" y2="686.79"/><ellipse cx="138" cy="700.5341" fill="#84BE84" rx="3" ry="3" style="stroke:#038048;stroke-width:1.0;"/><text fill="#000000" font-family="sans-serif" font-size="14" lengthAdjust="spacing" textLength="206" x="147" y="704.3252">subscribe(observer: Observer)</text><ellipse cx="138" cy="717.0224" fill="#84BE84" rx="3" ry="3" style="stroke:#038048;stroke-width:1.0;"/><text fill="#000000" font-family="sans-serif" font-size="14" lengthAdjust="spacing" textLength="224" x="147" y="720.8134">unsubscribe(observer: Observer)</text><ellipse cx="138" cy="733.5107" fill="#84BE84" rx="3" ry="3" style="stroke:#038048;stroke-width:1.0;"/><text fill="#000000" font-family="sans-serif" font-size="14" lengthAdjust="spacing" textLength="118" x="147" y="737.3017">notifyObservers()</text></g><!--class DBObject--><g id="elem_DBObject"><rect codeLine="13" fill="#F1F1F1" height="146.9297" id="DBObject" rx="2.5" ry="2.5" style="stroke:#181818;stroke-width:0.5;" width="250" x="127" y="438.86"/><ellipse cx="216.75" cy="454.86" fill="#A9DCDF" rx="11" ry="11" style="stroke:#181818;stroke-width:1.0;"/><path d="M216.6133,450.2081 L215.4595,455.2799 L217.7754,455.2799 Z M215.1191,447.9669 L218.1157,447.9669 L221.4609,460.36 L219.0122,460.36 L218.2485,457.297 L214.9697,457.297 L214.2227,460.36 L211.7739,460.36 Z " fill="#000000"/><text fill="#000000" font-family="sans-serif" font-size="14" font-style="italic" lengthAdjust="spacing" textLength="62" x="237.25" y="460.151">DBObject</text><line style="stroke:#181818;stroke-width:0.5;" x1="128" x2="376" y1="470.86" y2="470.86"/><rect fill="none" height="6" style="stroke:#C82930;stroke-width:1.0;" width="6" x="135" y="481.6041"/><text fill="#000000" font-family="sans-serif" font-size="14" lengthAdjust="spacing" textLength="61" x="147" y="488.3952">id: string</text><rect fill="none" height="6" style="stroke:#C82930;stroke-width:1.0;" width="6" x="135" y="498.0924"/><text fill="#000000" font-family="sans-serif" font-size="14" lengthAdjust="spacing" textLength="180" x="147" y="504.8834">observers: Set&lt;Observer&gt;</text><line style="stroke:#181818;stroke-width:1.0;" x1="128" x2="376" y1="511.8366" y2="511.8366"/><ellipse cx="138" cy="525.5807" fill="#84BE84" rx="3" ry="3" style="stroke:#038048;stroke-width:1.0;"/><text fill="#000000" font-family="sans-serif" font-size="14" lengthAdjust="spacing" textLength="97" x="147" y="529.3717">getId() : string</text><ellipse cx="138" cy="542.069" fill="#84BE84" rx="3" ry="3" style="stroke:#038048;stroke-width:1.0;"/><text fill="#000000" font-family="sans-serif" font-size="14" lengthAdjust="spacing" textLength="206" x="147" y="545.86">subscribe(observer: Observer)</text><ellipse cx="138" cy="558.5573" fill="#84BE84" rx="3" ry="3" style="stroke:#038048;stroke-width:1.0;"/><text fill="#000000" font-family="sans-serif" font-size="14" lengthAdjust="spacing" textLength="224" x="147" y="562.3483">unsubscribe(observer: Observer)</text><ellipse cx="138" cy="575.0455" fill="#84BE84" rx="3" ry="3" style="stroke:#038048;stroke-width:1.0;"/><text fill="#000000" font-family="sans-serif" font-size="14" lengthAdjust="spacing" textLength="118" x="147" y="578.8366">notifyObservers()</text></g><!--class DRCViolation--><g id="elem_DRCViolation"><rect codeLine="23" fill="#F1F1F1" height="146.9297" id="DRCViolation" rx="2.5" ry="2.5" style="stroke:#181818;stroke-width:0.5;" width="369" x="289.5" y="214.93"/><ellipse cx="424.75" cy="230.93" fill="#ADD1B2" rx="11" ry="11" style="stroke:#181818;stroke-width:1.0;"/><path d="M427.2231,237.0731 Q426.6421,237.3719 426.0029,237.5213 Q425.3638,237.6707 424.6582,237.6707 Q422.1514,237.6707 420.8315,236.0189 Q419.5117,234.367 419.5117,231.2459 Q419.5117,228.1165 420.8315,226.4647 Q422.1514,224.8128 424.6582,224.8128 Q425.3638,224.8128 426.0112,224.9622 Q426.6587,225.1116 427.2231,225.4105 L427.2231,228.1331 Q426.5923,227.5521 425.9988,227.2823 Q425.4053,227.0125 424.7744,227.0125 Q423.4297,227.0125 422.7449,228.0792 Q422.0601,229.1458 422.0601,231.2459 Q422.0601,233.3377 422.7449,234.4044 Q423.4297,235.471 424.7744,235.471 Q425.4053,235.471 425.9988,235.2012 Q426.5923,234.9315 427.2231,234.3504 Z " fill="#000000"/><text fill="#000000" font-family="sans-serif" font-size="14" lengthAdjust="spacing" textLength="90" x="445.25" y="236.221">DRCViolation</text><line style="stroke:#181818;stroke-width:0.5;" x1="290.5" x2="657.5" y1="246.93" y2="246.93"/><rect fill="none" height="6" style="stroke:#C82930;stroke-width:1.0;" width="6" x="297.5" y="257.6741"/><text fill="#000000" font-family="sans-serif" font-size="14" lengthAdjust="spacing" textLength="75" x="309.5" y="264.4652">stale : bool</text><rect fill="none" height="6" style="stroke:#C82930;stroke-width:1.0;" width="6" x="297.5" y="274.1624"/><text fill="#000000" font-family="sans-serif" font-size="14" lengthAdjust="spacing" textLength="120" x="309.5" y="280.9534">violationId: string</text><rect fill="none" height="6" style="stroke:#C82930;stroke-width:1.0;" width="6" x="297.5" y="290.6507"/><text fill="#000000" font-family="sans-serif" font-size="14" lengthAdjust="spacing" textLength="315" x="309.5" y="297.4417">involvedObjects : pair&lt;DBObject*, DBObject*&gt;</text><line style="stroke:#181818;stroke-width:1.0;" x1="290.5" x2="657.5" y1="304.3948" y2="304.3948"/><ellipse cx="300.5" cy="318.139" fill="#84BE84" rx="3" ry="3" style="stroke:#038048;stroke-width:1.0;"/><text fill="#000000" font-family="sans-serif" font-size="14" lengthAdjust="spacing" textLength="58" x="309.5" y="321.93">update()</text><ellipse cx="300.5" cy="334.6273" fill="#84BE84" rx="3" ry="3" style="stroke:#038048;stroke-width:1.0;"/><text fill="#000000" font-family="sans-serif" font-size="14" lengthAdjust="spacing" textLength="97" x="309.5" y="338.4183">isStale() : bool</text><ellipse cx="300.5" cy="351.1155" fill="#84BE84" rx="3" ry="3" style="stroke:#038048;stroke-width:1.0;"/><text fill="#000000" font-family="sans-serif" font-size="14" lengthAdjust="spacing" textLength="343" x="309.5" y="354.9066">getInvolvedObjects(): pair&lt;DBObject*, DBObject*&gt;</text></g><!--class DRCEngine--><g id="elem_DRCEngine"><rect codeLine="33" fill="#F1F1F1" height="146.9297" id="DRCEngine" rx="2.5" ry="2.5" style="stroke:#181818;stroke-width:0.5;" width="498" x="7" y="7"/><ellipse cx="213.75" cy="23" fill="#ADD1B2" rx="11" ry="11" style="stroke:#181818;stroke-width:1.0;"/><path d="M216.2231,29.1431 Q215.6421,29.4419 215.0029,29.5913 Q214.3638,29.7407 213.6582,29.7407 Q211.1514,29.7407 209.8315,28.0889 Q208.5117,26.437 208.5117,23.3159 Q208.5117,20.1865 209.8315,18.5347 Q211.1514,16.8828 213.6582,16.8828 Q214.3638,16.8828 215.0112,17.0322 Q215.6587,17.1816 216.2231,17.4805 L216.2231,20.2031 Q215.5923,19.6221 214.9988,19.3523 Q214.4053,19.0825 213.7744,19.0825 Q212.4297,19.0825 211.7449,20.1492 Q211.0601,21.2158 211.0601,23.3159 Q211.0601,25.4077 211.7449,26.4744 Q212.4297,27.541 213.7744,27.541 Q214.4053,27.541 214.9988,27.2712 Q215.5923,27.0015 216.2231,26.4204 Z " fill="#000000"/><text fill="#000000" font-family="sans-serif" font-size="14" lengthAdjust="spacing" textLength="76" x="234.25" y="28.291">DRCEngine</text><line style="stroke:#181818;stroke-width:0.5;" x1="8" x2="504" y1="39" y2="39"/><rect fill="none" height="6" style="stroke:#C82930;stroke-width:1.0;" width="6" x="15" y="49.7441"/><text fill="#000000" font-family="sans-serif" font-size="14" lengthAdjust="spacing" textLength="472" x="27" y="56.5352">dbObjects: unordered_map&lt;string, shared_ptr&lt;DBObject&gt;&gt; objects;</text><rect fill="none" height="6" style="stroke:#C82930;stroke-width:1.0;" width="6" x="15" y="66.2324"/><text fill="#000000" font-family="sans-serif" font-size="14" lengthAdjust="spacing" text-decoration="underline" textLength="145" x="27" y="73.0234">instance : DRCEngine</text><line style="stroke:#181818;stroke-width:1.0;" x1="8" x2="504" y1="79.9766" y2="79.9766"/><ellipse cx="18" cy="93.7207" fill="#84BE84" rx="3" ry="3" style="stroke:#038048;stroke-width:1.0;"/><text fill="#000000" font-family="sans-serif" font-size="14" lengthAdjust="spacing" textLength="327" x="27" y="97.5117">createViolation(obj1: DBObject, obj2 : DBObject)</text><ellipse cx="18" cy="110.209" fill="#84BE84" rx="3" ry="3" style="stroke:#038048;stroke-width:1.0;"/><text fill="#000000" font-family="sans-serif" font-size="14" lengthAdjust="spacing" textLength="218" x="27" y="114">updateViolations(obj: DBObject)</text><ellipse cx="18" cy="126.6973" fill="#84BE84" rx="3" ry="3" style="stroke:#038048;stroke-width:1.0;"/><text fill="#000000" font-family="sans-serif" font-size="14" lengthAdjust="spacing" textLength="221" x="27" y="130.4883">removeViolations(obj: DBObject)</text><ellipse cx="18" cy="143.1855" fill="#84BE84" rx="3" ry="3" style="stroke:#038048;stroke-width:1.0;"/><text fill="#000000" font-family="sans-serif" font-size="14" lengthAdjust="spacing" textLength="177" x="27" y="146.9766">getInstance() : DRCEngine</text></g><g id="elem_GMN12"><path d="M539.5,52.5 L539.5,76.46 L505.15,80.46 L539.5,84.46 L539.5,108.4316 A0,0 0 0 0 539.5,108.4316 L814.5,108.4316 A0,0 0 0 0 814.5,108.4316 L814.5,62.5 L804.5,52.5 L539.5,52.5 A0,0 0 0 0 539.5,52.5 " fill="#FEFFDD" style="stroke:#181818;stroke-width:0.5;"/><path d="M804.5,52.5 L804.5,62.5 L814.5,62.5 L804.5,52.5 " fill="#FEFFDD" style="stroke:#181818;stroke-width:0.5;"/><text fill="#000000" font-family="sans-serif" font-size="13" lengthAdjust="spacing" textLength="112" x="545.5" y="70.0684">Singleton pattern:</text><text fill="#000000" font-family="sans-serif" font-size="13" lengthAdjust="spacing" textLength="254" x="545.5" y="85.3789">- getInstance() returns the only instance</text><text fill="#000000" font-family="sans-serif" font-size="13" lengthAdjust="spacing" textLength="198" x="545.5" y="100.6895">- instance is static (underlined)</text></g><!--link DBObject to Subject--><g id="link_DBObject_Subject"><path codeLine="43" d="M252,586.24 C252,606.49 252,609.98 252,628.43 " fill="none" id="DBObject-to-Subject" style="stroke:#181818;stroke-width:1.0;stroke-dasharray:7.0,7.0;"/><polygon fill="none" points="252,646.43,258,628.43,246,628.43,252,646.43" style="stroke:#181818;stroke-width:1.0;"/></g><!--link DRCViolation to Observer--><g id="link_DRCViolation_Observer"><path codeLine="44" d="M474,362.06 C474,401.88 474,431.2 474,461.72 " fill="none" id="DRCViolation-to-Observer" style="stroke:#181818;stroke-width:1.0;stroke-dasharray:7.0,7.0;"/><polygon fill="none" points="474,479.72,480,461.72,468,461.72,474,479.72" style="stroke:#181818;stroke-width:1.0;"/></g><!--link DRCViolation to DBObject--><g id="link_DRCViolation_DBObject"><path codeLine="45" d="M401.31,362.06 C376.78,386.58 357.887,405.4664 333.337,430.0064 " fill="none" id="DRCViolation-to-DBObject" style="stroke:#181818;stroke-width:1.0;"/><polygon fill="none" points="324.85,438.49,331.9214,437.0772,333.337,430.0064,326.2657,431.4192,324.85,438.49" style="stroke:#181818;stroke-width:1.0;"/><text fill="#000000" font-family="sans-serif" font-size="13" lengthAdjust="spacing" textLength="56" x="370.66" y="405.4284">observes</text><text fill="#000000" font-family="sans-serif" font-size="13" lengthAdjust="spacing" textLength="22" x="371.3333" y="382.3792">1..*</text><text fill="#000000" font-family="sans-serif" font-size="13" lengthAdjust="spacing" textLength="24" x="306.8399" y="428.0672">1..2</text></g><!--reverse link DRCEngine to DRCViolation--><g id="link_DRCEngine_DRCViolation"><path codeLine="48" d="M341.8921,162.5917 C362.5921,182.1517 376.24,195.05 396.94,214.6 " fill="none" id="DRCEngine-backto-DRCViolation" style="stroke:#181818;stroke-width:1.0;"/><polygon fill="#181818" points="333.17,154.35,334.7838,161.3782,341.8921,162.5917,340.2783,155.5635,333.17,154.35" style="stroke:#181818;stroke-width:1.0;"/></g><!--reverse link DRCEngine to DBObject--><g id="link_DRCEngine_DBObject"><path codeLine="49" d="M255.2078,166.3795 C254.4678,245.5495 253.42,359.24 252.68,438.4 " fill="none" id="DRCEngine-backto-DBObject" style="stroke:#181818;stroke-width:1.0;"/><polygon fill="none" points="255.32,154.38,251.2641,160.3424,255.2078,166.3795,259.2637,160.4171,255.32,154.38" style="stroke:#181818;stroke-width:1.0;"/></g><!--SRC=[lLHDRvmm4BtpAqPx2MoNhP8ZGHoQvB2dI5sfryhWsLr7h8riWnIb_UyTR6n0aTASmWdcuyrxpsDku20jwXDhq2GYlC9pRL0FgE4j0Ng-zHrd5jCi-Piigevz_OAD3KMchqsZHOsfcjgB29HDEF8JHL9PSNeDGUEdti23qWXSNPcGqBJC66BCQcCr8mgFFvwNN7B12w2KaEVnqyV2G5F04MqP1bIn8FVppsWFFCqW87o1EgS77dy-_1AgPLOe2MypSMDPYqIdLghraI6K7VYAPIxaeDe1kNV3K5F7X2w3FTjTT6fRhKJ74tPVmXp7cSw4EDKPiyPFiuy6E0LBTK_oB2I6C-BrX590BvNcg97_lhAkz89sO2vi37LsngygKBxfteEKVIKa6IIRqQ4ue_pUh_Kr6abVj9VEv-MsY5nt8-eTp85iwKhiCcFRkoADLpNyhyXvvtawLsSt9fFY1k_tVwfmjPBLIhXCs9nrQdExtsytf5QvrxlDV2CAc7RH-5jqxPGHheb93aTokaMhP38pskRvQXSNAJMc9kGaeLr6qE9yiQ1EioHI765fFIpzBsH1mHpMBcYqlPO6x8M0PViAuIHTRJnMOMZ5YKW3QIzfIreQmRC4YVr8u1y0]--></g></svg>